G04 #@! TF.FileFunction,Soldermask,Bot*
%FSLAX46Y46*%
G04 Gerber Fmt 4.6, Leading zero omitted, Abs format (unit mm)*
G04 Created by KiCad (PCBNEW 4.0.6) date 06/08/18 14:18:22*
%MOMM*%
%LPD*%
G01*
G04 APERTURE LIST*
%ADD10C,0.100000*%
%ADD11C,2.700000*%
%ADD12C,3.600000*%
G04 APERTURE END LIST*
D10*
D11*
X108451000Y-133282000D03*
X108451000Y-139632000D03*
X112641000Y-133282000D03*
X112641000Y-139632000D03*
X116831000Y-133282000D03*
X116831000Y-139632000D03*
X121021000Y-133282000D03*
X121021000Y-139632000D03*
X125211000Y-133282000D03*
X125211000Y-139632000D03*
X129401000Y-133282000D03*
X129401000Y-139632000D03*
X163451000Y-133282000D03*
X163451000Y-139632000D03*
X167641000Y-133282000D03*
X167641000Y-139632000D03*
X171831000Y-133282000D03*
X171831000Y-139632000D03*
X176021000Y-133282000D03*
X176021000Y-139632000D03*
X180211000Y-133282000D03*
X180211000Y-139632000D03*
X184401000Y-133282000D03*
X184401000Y-139632000D03*
D12*
X146431000Y-137672000D03*
D11*
X168532600Y-102652800D03*
X156532600Y-102652800D03*
X162532600Y-104652800D03*
X168532600Y-90452800D03*
X152532600Y-102652800D03*
X140532600Y-102652800D03*
X146532600Y-104652800D03*
X152532600Y-90452800D03*
X136532600Y-102652800D03*
X124532600Y-102652800D03*
X130532600Y-104652800D03*
X136532600Y-90452800D03*
X124532600Y-111752800D03*
X136532600Y-111752800D03*
X130532600Y-109752800D03*
X124532600Y-123952800D03*
X140532600Y-111752800D03*
X152532600Y-111752800D03*
X146532600Y-109752800D03*
X140532600Y-123952800D03*
X156532600Y-111752800D03*
X168532600Y-111752800D03*
X162532600Y-109752800D03*
X156532600Y-123952800D03*
M02*
