M48
;DRILL file {KiCad 4.0.6} date 06/08/18 14:18:28
;FORMAT={-:-/ absolute / inch / decimal}
FMAT,2
INCH,TZ
T1C0.016
T2C0.047
T3C0.051
%
G90
G05
M72
T1
X4.2559Y-3.3374
X4.2929Y-3.3382
X4.3291Y-2.4354
X4.3327Y-3.339
X4.4142Y-3.285
X4.415Y-3.3232
X4.4488Y-3.2205
X4.4669Y-3.1327
X4.5894Y-3.2449
X4.648Y-2.435
X4.7146Y-2.3409
X4.7157Y-1.7941
X4.7913Y-3.1488
X4.8028Y-2.8248
X4.8047Y-2.4276
X4.9685Y-2.4398
X5.087Y-2.0193
X5.1154Y-1.9937
X5.1358Y-2.9358
X5.1913Y-2.072
X5.2283Y-2.9346
X5.2866Y-2.4665
X5.3177Y-2.6087
X5.322Y-2.289
X5.3256Y-1.95
X5.3268Y-2.1346
X5.3429Y-2.7232
X5.3465Y-2.4402
X5.3516Y-1.8205
X5.3539Y-2.1654
X5.3756Y-2.8646
X5.3839Y-1.7921
X5.3866Y-2.2878
X5.4185Y-1.952
X5.4287Y-2.0512
X5.4484Y-2.2898
X5.4575Y-2.0307
X5.472Y-2.7071
X5.476Y-1.7457
X5.4839Y-2.287
X5.5094Y-2.5165
X5.5776Y-2.4409
X5.5791Y-2.387
X5.5807Y-1.7783
X5.5815Y-1.7264
X5.5815Y-1.8161
X5.5839Y-2.237
X5.6138Y-2.3303
X5.615Y-2.2921
X5.6154Y-2.972
X5.6205Y-2.3858
X5.6433Y-1.8071
X5.6484Y-2.4803
X5.6524Y-2.3571
X5.6665Y-1.865
X5.7028Y-2.1417
X5.7358Y-1.9319
X5.7827Y-1.937
X5.8071Y-2.2433
X5.8457Y-2.8815
X5.9252Y-2.6654
X6.0433Y-3.0673
X6.0465Y-2.9984
X6.048Y-2.9205
X6.2425Y-3.0642
X6.2622Y-2.6697
X6.2701Y-2.2252
X6.3488Y-3.
X6.3496Y-2.7799
X6.6299Y-2.5508
X6.6417Y-2.9732
X6.7118Y-2.0409
X6.713Y-1.989
X6.7134Y-2.0902
X6.7752Y-2.552
X6.798Y-3.4098
X6.9323Y-2.0217
X7.2839Y-2.4358
T2
X4.2697Y-5.2473
X4.2697Y-5.4973
X4.4347Y-5.2473
X4.4347Y-5.4973
X4.5996Y-5.2473
X4.5996Y-5.4973
X4.7646Y-5.2473
X4.7646Y-5.4973
X4.9296Y-5.2473
X4.9296Y-5.4973
X5.0945Y-5.2473
X5.0945Y-5.4973
X6.4351Y-5.2473
X6.4351Y-5.4973
X6.6Y-5.2473
X6.6Y-5.4973
X6.765Y-5.2473
X6.765Y-5.4973
X6.93Y-5.2473
X6.93Y-5.4973
X7.0949Y-5.2473
X7.0949Y-5.4973
X7.2599Y-5.2473
X7.2599Y-5.4973
T3
X4.9029Y-4.0414
X4.9029Y-4.3997
X4.9029Y-4.88
X5.1391Y-4.1202
X5.1391Y-4.321
X5.3753Y-3.5611
X5.3753Y-4.0414
X5.3753Y-4.3997
X5.5328Y-4.0414
X5.5328Y-4.3997
X5.5328Y-4.88
X5.769Y-4.1202
X5.769Y-4.321
X6.0052Y-3.5611
X6.0052Y-4.0414
X6.0052Y-4.3997
X6.1627Y-4.0414
X6.1627Y-4.3997
X6.1627Y-4.88
X6.3989Y-4.1202
X6.3989Y-4.321
X6.6351Y-3.5611
X6.6351Y-4.0414
X6.6351Y-4.3997
T0
M30
