G04 #@! TF.FileFunction,Copper,L2,Bot,Signal*
%FSLAX46Y46*%
G04 Gerber Fmt 4.6, Leading zero omitted, Abs format (unit mm)*
G04 Created by KiCad (PCBNEW 4.0.6) date 06/08/18 14:18:22*
%MOMM*%
%LPD*%
G01*
G04 APERTURE LIST*
%ADD10C,0.100000*%
%ADD11C,2.300000*%
%ADD12C,0.600000*%
%ADD13C,0.250000*%
%ADD14C,2.000000*%
%ADD15C,4.500000*%
%ADD16C,0.254000*%
G04 APERTURE END LIST*
D10*
D11*
X108451000Y-133282000D03*
X108451000Y-139632000D03*
X112641000Y-133282000D03*
X112641000Y-139632000D03*
X116831000Y-133282000D03*
X116831000Y-139632000D03*
X121021000Y-133282000D03*
X121021000Y-139632000D03*
X125211000Y-133282000D03*
X125211000Y-139632000D03*
X129401000Y-133282000D03*
X129401000Y-139632000D03*
X163451000Y-133282000D03*
X163451000Y-139632000D03*
X167641000Y-133282000D03*
X167641000Y-139632000D03*
X171831000Y-133282000D03*
X171831000Y-139632000D03*
X176021000Y-133282000D03*
X176021000Y-139632000D03*
X180211000Y-133282000D03*
X180211000Y-139632000D03*
X184401000Y-133282000D03*
X184401000Y-139632000D03*
X168532600Y-102652800D03*
X156532600Y-102652800D03*
X162532600Y-104652800D03*
X168532600Y-90452800D03*
X152532600Y-102652800D03*
X140532600Y-102652800D03*
X146532600Y-104652800D03*
X152532600Y-90452800D03*
X136532600Y-102652800D03*
X124532600Y-102652800D03*
X130532600Y-104652800D03*
X136532600Y-90452800D03*
X124532600Y-111752800D03*
X136532600Y-111752800D03*
X130532600Y-109752800D03*
X124532600Y-123952800D03*
X140532600Y-111752800D03*
X152532600Y-111752800D03*
X146532600Y-109752800D03*
X140532600Y-123952800D03*
X156532600Y-111752800D03*
X168532600Y-111752800D03*
X162532600Y-109752800D03*
X156532600Y-123952800D03*
D12*
X119780000Y-45570000D03*
X142630000Y-75490000D03*
X121700000Y-79980000D03*
X113460000Y-79570000D03*
X147500000Y-56980000D03*
X131860000Y-52630000D03*
X119750000Y-59460000D03*
X138990000Y-68760000D03*
X141750000Y-45170000D03*
X136750000Y-45520000D03*
X148480000Y-73190000D03*
X150500000Y-67700000D03*
X135930000Y-46240000D03*
X141770000Y-46130000D03*
X159260000Y-56520000D03*
X146880000Y-49200000D03*
X153500000Y-77910000D03*
X159060000Y-67810000D03*
X143930000Y-47370000D03*
X137630000Y-49580000D03*
X161280000Y-70610000D03*
X161260000Y-76200000D03*
X142620000Y-58220000D03*
X170510000Y-50520000D03*
X153620000Y-74180000D03*
X141830000Y-56820000D03*
X170520000Y-53090000D03*
X143570000Y-59870000D03*
X143470000Y-63000000D03*
X153580000Y-76160000D03*
X134280000Y-62650000D03*
X158560000Y-77830000D03*
X135070000Y-66260000D03*
X139290000Y-58090000D03*
X170480000Y-51840000D03*
X142590000Y-59190000D03*
X136820000Y-58110000D03*
X135800000Y-61980000D03*
X135710000Y-69170000D03*
X136540000Y-72760000D03*
X132800000Y-74540000D03*
X138620000Y-51580000D03*
X135300000Y-54220000D03*
X141770000Y-43850000D03*
X176080000Y-51350000D03*
X135270000Y-49530000D03*
X168700000Y-75520000D03*
X172090000Y-64820000D03*
X109960000Y-61860000D03*
X108100000Y-84770000D03*
X118060000Y-61850000D03*
X109040000Y-84790000D03*
X185010000Y-61870000D03*
X135990000Y-55000000D03*
X126200000Y-61970000D03*
X110050000Y-84810000D03*
X168400000Y-64790000D03*
X141670000Y-62000000D03*
X139940000Y-63920000D03*
X144850000Y-54400000D03*
X141710000Y-60630000D03*
X145690000Y-49070000D03*
X122040000Y-61660000D03*
X143340000Y-45900000D03*
X137890000Y-52100000D03*
X130450000Y-74570000D03*
X139090000Y-44340000D03*
X121990000Y-71750000D03*
X172670000Y-86610000D03*
X142760000Y-60600000D03*
X116570000Y-82420000D03*
X138390000Y-58160000D03*
X113000000Y-81800000D03*
X129210000Y-51290000D03*
X129930000Y-50640000D03*
X112120000Y-83440000D03*
X112140000Y-84410000D03*
X135180000Y-58140000D03*
D13*
X119720000Y-46910000D02*
X119720000Y-45630000D01*
X119720000Y-45630000D02*
X119780000Y-45570000D01*
X136750000Y-45520000D02*
X141400000Y-45520000D01*
X141400000Y-45520000D02*
X141750000Y-45170000D01*
X148480000Y-73190000D02*
X148480000Y-69720000D01*
X148480000Y-69720000D02*
X150500000Y-67700000D01*
X141660000Y-46240000D02*
X135930000Y-46240000D01*
X141770000Y-46130000D02*
X141660000Y-46240000D01*
X156100000Y-49200000D02*
X146880000Y-49200000D01*
X159260000Y-52360000D02*
X156100000Y-49200000D01*
X159260000Y-56520000D02*
X159260000Y-52360000D01*
X147970000Y-49200000D02*
X146880000Y-49200000D01*
X153500000Y-77910000D02*
X159060000Y-72350000D01*
X159060000Y-72350000D02*
X159060000Y-67810000D01*
X141720000Y-49580000D02*
X143930000Y-47370000D01*
X137630000Y-49580000D02*
X141720000Y-49580000D01*
X161260000Y-70630000D02*
X161280000Y-70610000D01*
X161260000Y-76200000D02*
X161260000Y-70630000D01*
X143130000Y-58730000D02*
X142620000Y-58220000D01*
X166670000Y-58730000D02*
X143130000Y-58730000D01*
X168580000Y-56820000D02*
X166670000Y-58730000D01*
X168580000Y-52450000D02*
X168580000Y-56820000D01*
X170510000Y-50520000D02*
X168580000Y-52450000D01*
X140610000Y-60840000D02*
X141380000Y-60070000D01*
X153620000Y-74180000D02*
X153390000Y-74410000D01*
X153390000Y-74410000D02*
X144630000Y-74410000D01*
X144630000Y-74410000D02*
X140610000Y-70390000D01*
X140610000Y-70390000D02*
X140610000Y-60840000D01*
X141380000Y-57270000D02*
X141830000Y-56820000D01*
X141380000Y-60070000D02*
X141380000Y-57270000D01*
X170520000Y-53090000D02*
X169570000Y-54040000D01*
X169570000Y-54040000D02*
X169570000Y-57160000D01*
X169570000Y-57160000D02*
X166860000Y-59870000D01*
X166860000Y-59870000D02*
X143570000Y-59870000D01*
X150820000Y-63000000D02*
X143470000Y-63000000D01*
X155140000Y-67320000D02*
X150820000Y-63000000D01*
X155140000Y-74600000D02*
X155140000Y-67320000D01*
X153580000Y-76160000D02*
X155140000Y-74600000D01*
X134280000Y-57720000D02*
X134840000Y-57160000D01*
X134280000Y-62650000D02*
X134280000Y-57720000D01*
X137460000Y-69490000D02*
X137460000Y-68650000D01*
X137460000Y-76720000D02*
X137460000Y-69490000D01*
X142510000Y-81770000D02*
X137460000Y-76720000D01*
X157170000Y-81770000D02*
X142510000Y-81770000D01*
X158440000Y-80500000D02*
X157170000Y-81770000D01*
X158440000Y-77950000D02*
X158440000Y-80500000D01*
X158560000Y-77830000D02*
X158440000Y-77950000D01*
X137460000Y-68650000D02*
X135070000Y-66260000D01*
X138360000Y-57160000D02*
X139290000Y-58090000D01*
X134840000Y-57160000D02*
X138360000Y-57160000D01*
X148230000Y-59190000D02*
X148230000Y-59190000D01*
X170480000Y-51840000D02*
X169040000Y-53280000D01*
X169040000Y-53280000D02*
X169040000Y-57053602D01*
X169040000Y-57053602D02*
X166903602Y-59190000D01*
X166903602Y-59190000D02*
X148230000Y-59190000D01*
X148230000Y-59190000D02*
X142590000Y-59190000D01*
X136820000Y-60960000D02*
X136820000Y-58110000D01*
X135800000Y-61980000D02*
X136820000Y-60960000D01*
X135710000Y-71930000D02*
X135710000Y-69170000D01*
X136540000Y-72760000D02*
X135710000Y-71930000D01*
X140430002Y-59669998D02*
X140430002Y-58180000D01*
X132800000Y-74540000D02*
X132800000Y-67300000D01*
X132800000Y-67300000D02*
X140430002Y-59669998D01*
X138620000Y-52110000D02*
X138620000Y-51580000D01*
X140430002Y-53920002D02*
X138620000Y-52110000D01*
X140430002Y-58180000D02*
X140430002Y-53920002D01*
X141770000Y-43850000D02*
X140650000Y-44970000D01*
X140650000Y-44970000D02*
X137510000Y-44970000D01*
X137510000Y-44970000D02*
X137250000Y-44710000D01*
X137250000Y-44710000D02*
X135730000Y-44710000D01*
X135730000Y-44710000D02*
X133970000Y-46470000D01*
X133970000Y-46470000D02*
X133970000Y-52890000D01*
X133970000Y-52890000D02*
X135300000Y-54220000D01*
X170720000Y-45990000D02*
X176080000Y-51350000D01*
X144280000Y-45990000D02*
X170720000Y-45990000D01*
X143190000Y-47080000D02*
X144280000Y-45990000D01*
X139110000Y-47080000D02*
X143190000Y-47080000D01*
X136660000Y-49530000D02*
X139110000Y-47080000D01*
X135270000Y-49530000D02*
X136660000Y-49530000D01*
X172090000Y-72130000D02*
X172090000Y-64820000D01*
X168700000Y-75520000D02*
X172090000Y-72130000D01*
X184401000Y-139632000D02*
X186160000Y-137873000D01*
X174370000Y-64820000D02*
X172090000Y-64820000D01*
X186160000Y-76610000D02*
X174370000Y-64820000D01*
X186160000Y-137873000D02*
X186160000Y-76610000D01*
D14*
X108451000Y-133282000D02*
X108451000Y-92999000D01*
X162829800Y-84750000D02*
X168532600Y-90452800D01*
X116700000Y-84750000D02*
X162829800Y-84750000D01*
X108451000Y-92999000D02*
X116700000Y-84750000D01*
X112641000Y-133282000D02*
X112641000Y-92789000D01*
X149669800Y-87590000D02*
X152532600Y-90452800D01*
X117840000Y-87590000D02*
X149669800Y-87590000D01*
X112641000Y-92789000D02*
X117840000Y-87590000D01*
X116831000Y-133282000D02*
X116831000Y-92609000D01*
X118987200Y-90452800D02*
X136532600Y-90452800D01*
X116831000Y-92609000D02*
X118987200Y-90452800D01*
X121021000Y-133282000D02*
X121021000Y-127464400D01*
X121021000Y-127464400D02*
X124532600Y-123952800D01*
D13*
X108100000Y-63720000D02*
X109960000Y-61860000D01*
X108100000Y-84770000D02*
X108100000Y-63720000D01*
D14*
X125211000Y-133282000D02*
X134540200Y-123952800D01*
X134540200Y-123952800D02*
X140532600Y-123952800D01*
D13*
X111620000Y-61850000D02*
X118060000Y-61850000D01*
X109040000Y-64430000D02*
X111620000Y-61850000D01*
X109040000Y-84790000D02*
X109040000Y-64430000D01*
X144130000Y-48360000D02*
X143610000Y-48360000D01*
X185010000Y-61870000D02*
X171500000Y-48360000D01*
X171500000Y-48360000D02*
X144130000Y-48360000D01*
X135990000Y-52820000D02*
X135990000Y-55000000D01*
X138400000Y-50410000D02*
X135990000Y-52820000D01*
X141560000Y-50410000D02*
X138400000Y-50410000D01*
X143610000Y-48360000D02*
X141560000Y-50410000D01*
X125530000Y-62640000D02*
X126200000Y-61970000D01*
X112400000Y-62640000D02*
X125530000Y-62640000D01*
X110050000Y-64990000D02*
X112400000Y-62640000D01*
X110050000Y-84810000D02*
X110050000Y-64990000D01*
D15*
X163451000Y-133282000D02*
X167641000Y-133282000D01*
X167641000Y-133282000D02*
X171831000Y-133282000D01*
X171831000Y-133282000D02*
X176021000Y-133282000D01*
X180211000Y-133282000D02*
X176021000Y-133282000D01*
X162532600Y-109752800D02*
X162532600Y-107250000D01*
X162532600Y-104652800D02*
X162532600Y-107250000D01*
X162500000Y-106750000D02*
X162500000Y-107250000D01*
X162500000Y-107217400D02*
X162500000Y-106750000D01*
X162532600Y-107250000D02*
X162500000Y-107217400D01*
X146532600Y-104652800D02*
X146532600Y-107250000D01*
X146532600Y-109752800D02*
X146532600Y-107250000D01*
X146250000Y-107750000D02*
X146250000Y-107250000D01*
X146250000Y-107532600D02*
X146250000Y-107750000D01*
X146532600Y-107250000D02*
X146250000Y-107532600D01*
X130532600Y-109752800D02*
X130627000Y-109752800D01*
X130627000Y-109752800D02*
X133129800Y-107250000D01*
X176021000Y-133282000D02*
X176021000Y-110271000D01*
X176021000Y-110271000D02*
X173000000Y-107250000D01*
X173000000Y-107250000D02*
X162500000Y-107250000D01*
X133129800Y-107250000D02*
X130532600Y-104652800D01*
X162500000Y-107250000D02*
X146250000Y-107250000D01*
X146250000Y-107250000D02*
X133129800Y-107250000D01*
D13*
X180211000Y-139632000D02*
X181839000Y-141260000D01*
X169180000Y-64010000D02*
X168400000Y-64790000D01*
X175180000Y-64010000D02*
X169180000Y-64010000D01*
X186640000Y-75470000D02*
X175180000Y-64010000D01*
X186640000Y-139950000D02*
X186640000Y-75470000D01*
X185330000Y-141260000D02*
X186640000Y-139950000D01*
X181839000Y-141260000D02*
X185330000Y-141260000D01*
X160005000Y-77905000D02*
X160005000Y-67505000D01*
X154500000Y-62000000D02*
X141670000Y-62000000D01*
X160005000Y-67505000D02*
X154500000Y-62000000D01*
X184401000Y-133282000D02*
X184401000Y-102301000D01*
X184401000Y-102301000D02*
X160005000Y-77905000D01*
D14*
X129401000Y-133282000D02*
X135363000Y-127320000D01*
X153165400Y-127320000D02*
X156532600Y-123952800D01*
X135363000Y-127320000D02*
X153165400Y-127320000D01*
D13*
X140159998Y-60576400D02*
X140920000Y-59816398D01*
X139940000Y-63920000D02*
X140159998Y-63700002D01*
X140159998Y-63700002D02*
X140159998Y-60576400D01*
X144810000Y-54440000D02*
X144850000Y-54400000D01*
X142370000Y-54440000D02*
X144810000Y-54440000D01*
X140920000Y-55890000D02*
X142370000Y-54440000D01*
X140920000Y-59816398D02*
X140920000Y-55890000D01*
X141710000Y-60630000D02*
X141880000Y-60460000D01*
X147260000Y-55080000D02*
X147260000Y-50640000D01*
X147260000Y-50640000D02*
X145690000Y-49070000D01*
X147260000Y-55400000D02*
X147260000Y-55080000D01*
X146050000Y-56610000D02*
X147260000Y-55400000D01*
X143210000Y-56610000D02*
X146050000Y-56610000D01*
X141880000Y-57940000D02*
X143210000Y-56610000D01*
X141880000Y-60460000D02*
X141880000Y-57940000D01*
X122040000Y-46220000D02*
X124670000Y-43590000D01*
X122040000Y-61660000D02*
X122040000Y-46220000D01*
X143340000Y-44000000D02*
X143340000Y-45900000D01*
X143340000Y-43490000D02*
X143340000Y-44000000D01*
X142960000Y-43110000D02*
X143340000Y-43490000D01*
X141440000Y-43110000D02*
X142960000Y-43110000D01*
X141000000Y-43550000D02*
X141440000Y-43110000D01*
X141000000Y-43590000D02*
X141000000Y-43550000D01*
X124670000Y-43590000D02*
X141000000Y-43590000D01*
X139980000Y-54190000D02*
X137890000Y-52100000D01*
X130450000Y-74570000D02*
X130450000Y-68980000D01*
X130450000Y-68980000D02*
X139980000Y-59450000D01*
X139980000Y-59450000D02*
X139980000Y-54190000D01*
X138810002Y-44060002D02*
X139090000Y-44340000D01*
X130769998Y-44060002D02*
X138810002Y-44060002D01*
X128460000Y-46370000D02*
X130769998Y-44060002D01*
X128460000Y-65280000D02*
X128460000Y-46370000D01*
X121990000Y-71750000D02*
X128460000Y-65280000D01*
X172670000Y-86610000D02*
X165010000Y-78950000D01*
X165010000Y-78950000D02*
X165010000Y-69960000D01*
X165010000Y-69960000D02*
X155780000Y-60730000D01*
X155650000Y-60600000D02*
X155780000Y-60730000D01*
X142760000Y-60600000D02*
X155650000Y-60600000D01*
X116570000Y-82420000D02*
X116570000Y-82100000D01*
X138390000Y-60280000D02*
X138390000Y-58160000D01*
X116570000Y-82100000D02*
X138390000Y-60280000D01*
X113000000Y-81800000D02*
X129200000Y-65600000D01*
X129200000Y-64760000D02*
X129210000Y-64760000D01*
X129200000Y-65600000D02*
X129200000Y-64760000D01*
X129210000Y-64760000D02*
X129210000Y-51290000D01*
X129930000Y-65770000D02*
X129930000Y-50640000D01*
X112260000Y-83440000D02*
X129930000Y-65770000D01*
X112120000Y-83440000D02*
X112260000Y-83440000D01*
X112140000Y-84410000D02*
X115020000Y-81530000D01*
X135150000Y-58170000D02*
X135180000Y-58140000D01*
X135150000Y-62883602D02*
X135150000Y-58170000D01*
X116503602Y-81530000D02*
X135150000Y-62883602D01*
X115020000Y-81530000D02*
X116503602Y-81530000D01*
D16*
G36*
X187304000Y-46649492D02*
X187304000Y-141680000D01*
X185490877Y-141680000D01*
X185502973Y-141677594D01*
X185649612Y-141579612D01*
X186959612Y-140269612D01*
X187057594Y-140122973D01*
X187092000Y-139950000D01*
X187092000Y-75470000D01*
X187057594Y-75297027D01*
X186959612Y-75150387D01*
X175499612Y-63690388D01*
X175352973Y-63592406D01*
X175180000Y-63558000D01*
X169180000Y-63558000D01*
X169007027Y-63592406D01*
X168860388Y-63690387D01*
X168387787Y-64162989D01*
X168275829Y-64162891D01*
X168045297Y-64258145D01*
X167868765Y-64434369D01*
X167773109Y-64664735D01*
X167772891Y-64914171D01*
X167868145Y-65144703D01*
X168044369Y-65321235D01*
X168274735Y-65416891D01*
X168524171Y-65417109D01*
X168754703Y-65321855D01*
X168931235Y-65145631D01*
X169026891Y-64915265D01*
X169026990Y-64802235D01*
X169367225Y-64462000D01*
X171561138Y-64462000D01*
X171558765Y-64464369D01*
X171463109Y-64694735D01*
X171462891Y-64944171D01*
X171558145Y-65174703D01*
X171638000Y-65254698D01*
X171638000Y-71942776D01*
X168687787Y-74892989D01*
X168575829Y-74892891D01*
X168345297Y-74988145D01*
X168168765Y-75164369D01*
X168073109Y-75394735D01*
X168072891Y-75644171D01*
X168168145Y-75874703D01*
X168344369Y-76051235D01*
X168574735Y-76146891D01*
X168824171Y-76147109D01*
X169054703Y-76051855D01*
X169231235Y-75875631D01*
X169326891Y-75645265D01*
X169326990Y-75532234D01*
X172409612Y-72449612D01*
X172507594Y-72302973D01*
X172542000Y-72130000D01*
X172542000Y-65272000D01*
X174182776Y-65272000D01*
X185708000Y-76797224D01*
X185708000Y-132577444D01*
X185653870Y-132446440D01*
X185238746Y-132030591D01*
X184853000Y-131870415D01*
X184853000Y-102301000D01*
X184818594Y-102128027D01*
X184720612Y-101981388D01*
X160457000Y-77717776D01*
X160457000Y-76324171D01*
X160632891Y-76324171D01*
X160728145Y-76554703D01*
X160904369Y-76731235D01*
X161134735Y-76826891D01*
X161384171Y-76827109D01*
X161614703Y-76731855D01*
X161791235Y-76555631D01*
X161886891Y-76325265D01*
X161887109Y-76075829D01*
X161791855Y-75845297D01*
X161712000Y-75765302D01*
X161712000Y-71064693D01*
X161811235Y-70965631D01*
X161906891Y-70735265D01*
X161907109Y-70485829D01*
X161811855Y-70255297D01*
X161635631Y-70078765D01*
X161405265Y-69983109D01*
X161155829Y-69982891D01*
X160925297Y-70078145D01*
X160748765Y-70254369D01*
X160653109Y-70484735D01*
X160652891Y-70734171D01*
X160748145Y-70964703D01*
X160808000Y-71024663D01*
X160808000Y-75765272D01*
X160728765Y-75844369D01*
X160633109Y-76074735D01*
X160632891Y-76324171D01*
X160457000Y-76324171D01*
X160457000Y-67505000D01*
X160422594Y-67332027D01*
X160386591Y-67278145D01*
X160324613Y-67185388D01*
X154819612Y-61680388D01*
X154672973Y-61582406D01*
X154500000Y-61548000D01*
X142104728Y-61548000D01*
X142025631Y-61468765D01*
X141795265Y-61373109D01*
X141545829Y-61372891D01*
X141315297Y-61468145D01*
X141138765Y-61644369D01*
X141062000Y-61829240D01*
X141062000Y-61027224D01*
X141156619Y-60932606D01*
X141178145Y-60984703D01*
X141354369Y-61161235D01*
X141584735Y-61256891D01*
X141834171Y-61257109D01*
X142064703Y-61161855D01*
X142241235Y-60985631D01*
X142246459Y-60973049D01*
X142404369Y-61131235D01*
X142634735Y-61226891D01*
X142884171Y-61227109D01*
X143114703Y-61131855D01*
X143194698Y-61052000D01*
X155462776Y-61052000D01*
X164558000Y-70147224D01*
X164558000Y-78950000D01*
X164592406Y-79122973D01*
X164690388Y-79269612D01*
X172042989Y-86622213D01*
X172042891Y-86734171D01*
X172138145Y-86964703D01*
X172314369Y-87141235D01*
X172544735Y-87236891D01*
X172794171Y-87237109D01*
X173024703Y-87141855D01*
X173201235Y-86965631D01*
X173296891Y-86735265D01*
X173297109Y-86485829D01*
X173201855Y-86255297D01*
X173025631Y-86078765D01*
X172795265Y-85983109D01*
X172682234Y-85983010D01*
X165462000Y-78762776D01*
X165462000Y-69960000D01*
X165427594Y-69787027D01*
X165329612Y-69640388D01*
X156011224Y-60322000D01*
X166860000Y-60322000D01*
X167032973Y-60287594D01*
X167179612Y-60189612D01*
X169889612Y-57479612D01*
X169987594Y-57332973D01*
X170022000Y-57160000D01*
X170022000Y-54227224D01*
X170532213Y-53717011D01*
X170644171Y-53717109D01*
X170874703Y-53621855D01*
X171051235Y-53445631D01*
X171146891Y-53215265D01*
X171147109Y-52965829D01*
X171051855Y-52735297D01*
X170875631Y-52558765D01*
X170645265Y-52463109D01*
X170613918Y-52463082D01*
X170834703Y-52371855D01*
X171011235Y-52195631D01*
X171106891Y-51965265D01*
X171107109Y-51715829D01*
X171011855Y-51485297D01*
X170835631Y-51308765D01*
X170605265Y-51213109D01*
X170456245Y-51212979D01*
X170522213Y-51147011D01*
X170634171Y-51147109D01*
X170864703Y-51051855D01*
X171041235Y-50875631D01*
X171136891Y-50645265D01*
X171137109Y-50395829D01*
X171041855Y-50165297D01*
X170865631Y-49988765D01*
X170635265Y-49893109D01*
X170385829Y-49892891D01*
X170155297Y-49988145D01*
X169978765Y-50164369D01*
X169883109Y-50394735D01*
X169883010Y-50507766D01*
X168260388Y-52130388D01*
X168162406Y-52277027D01*
X168128000Y-52450000D01*
X168128000Y-56632776D01*
X166482776Y-58278000D01*
X143317224Y-58278000D01*
X143247011Y-58207787D01*
X143247109Y-58095829D01*
X143151855Y-57865297D01*
X142975631Y-57688765D01*
X142830657Y-57628567D01*
X143397224Y-57062000D01*
X146050000Y-57062000D01*
X146222973Y-57027594D01*
X146369612Y-56929612D01*
X147579612Y-55719613D01*
X147677594Y-55572973D01*
X147685896Y-55531235D01*
X147712000Y-55400000D01*
X147712000Y-50640000D01*
X147677594Y-50467027D01*
X147579612Y-50320388D01*
X147062310Y-49803086D01*
X147234703Y-49731855D01*
X147314698Y-49652000D01*
X155912776Y-49652000D01*
X158808000Y-52547224D01*
X158808000Y-56085272D01*
X158728765Y-56164369D01*
X158633109Y-56394735D01*
X158632891Y-56644171D01*
X158728145Y-56874703D01*
X158904369Y-57051235D01*
X159134735Y-57146891D01*
X159384171Y-57147109D01*
X159614703Y-57051855D01*
X159791235Y-56875631D01*
X159886891Y-56645265D01*
X159887109Y-56395829D01*
X159791855Y-56165297D01*
X159712000Y-56085302D01*
X159712000Y-52360000D01*
X159677594Y-52187027D01*
X159579612Y-52040388D01*
X156419612Y-48880388D01*
X156317263Y-48812000D01*
X171312776Y-48812000D01*
X184382989Y-61882213D01*
X184382891Y-61994171D01*
X184478145Y-62224703D01*
X184654369Y-62401235D01*
X184884735Y-62496891D01*
X185134171Y-62497109D01*
X185364703Y-62401855D01*
X185541235Y-62225631D01*
X185636891Y-61995265D01*
X185637109Y-61745829D01*
X185541855Y-61515297D01*
X185365631Y-61338765D01*
X185135265Y-61243109D01*
X185022234Y-61243010D01*
X171819612Y-48040388D01*
X171672973Y-47942406D01*
X171500000Y-47908000D01*
X144269831Y-47908000D01*
X144284703Y-47901855D01*
X144461235Y-47725631D01*
X144556891Y-47495265D01*
X144557109Y-47245829D01*
X144461855Y-47015297D01*
X144285631Y-46838765D01*
X144133591Y-46775633D01*
X144467224Y-46442000D01*
X170532776Y-46442000D01*
X175452989Y-51362213D01*
X175452891Y-51474171D01*
X175548145Y-51704703D01*
X175724369Y-51881235D01*
X175954735Y-51976891D01*
X176204171Y-51977109D01*
X176434703Y-51881855D01*
X176611235Y-51705631D01*
X176706891Y-51475265D01*
X176707109Y-51225829D01*
X176611855Y-50995297D01*
X176435631Y-50818765D01*
X176205265Y-50723109D01*
X176092234Y-50723010D01*
X171039612Y-45670388D01*
X170892973Y-45572406D01*
X170720000Y-45538000D01*
X144280000Y-45538000D01*
X144107027Y-45572406D01*
X143960388Y-45670388D01*
X143934315Y-45696461D01*
X143871855Y-45545297D01*
X143792000Y-45465302D01*
X143792000Y-43490000D01*
X143757594Y-43317027D01*
X143659612Y-43170388D01*
X143279612Y-42790388D01*
X143132973Y-42692406D01*
X142960000Y-42658000D01*
X141440000Y-42658000D01*
X141267027Y-42692406D01*
X141120388Y-42790388D01*
X140772776Y-43138000D01*
X124670000Y-43138000D01*
X124497027Y-43172406D01*
X124350388Y-43270388D01*
X121720388Y-45900388D01*
X121622406Y-46047027D01*
X121588000Y-46220000D01*
X121588000Y-61225272D01*
X121508765Y-61304369D01*
X121413109Y-61534735D01*
X121412891Y-61784171D01*
X121508145Y-62014703D01*
X121681140Y-62188000D01*
X118598556Y-62188000D01*
X118686891Y-61975265D01*
X118687109Y-61725829D01*
X118591855Y-61495297D01*
X118415631Y-61318765D01*
X118185265Y-61223109D01*
X117935829Y-61222891D01*
X117705297Y-61318145D01*
X117625302Y-61398000D01*
X111620000Y-61398000D01*
X111447027Y-61432406D01*
X111300388Y-61530388D01*
X108720388Y-64110388D01*
X108622406Y-64257027D01*
X108588000Y-64430000D01*
X108588000Y-84355272D01*
X108579953Y-84363305D01*
X108552000Y-84335302D01*
X108552000Y-63907224D01*
X109972213Y-62487011D01*
X110084171Y-62487109D01*
X110314703Y-62391855D01*
X110491235Y-62215631D01*
X110586891Y-61985265D01*
X110587109Y-61735829D01*
X110491855Y-61505297D01*
X110315631Y-61328765D01*
X110085265Y-61233109D01*
X109835829Y-61232891D01*
X109605297Y-61328145D01*
X109428765Y-61504369D01*
X109333109Y-61734735D01*
X109333010Y-61847766D01*
X107780388Y-63400388D01*
X107682406Y-63547027D01*
X107648000Y-63720000D01*
X107648000Y-84335272D01*
X107568765Y-84414369D01*
X107473109Y-84644735D01*
X107472891Y-84894171D01*
X107568145Y-85124703D01*
X107744369Y-85301235D01*
X107974735Y-85396891D01*
X108224171Y-85397109D01*
X108454703Y-85301855D01*
X108560047Y-85196695D01*
X108684369Y-85321235D01*
X108914735Y-85416891D01*
X109164171Y-85417109D01*
X109394703Y-85321855D01*
X109535108Y-85181695D01*
X109694369Y-85341235D01*
X109924735Y-85436891D01*
X110174171Y-85437109D01*
X110404703Y-85341855D01*
X110581235Y-85165631D01*
X110676891Y-84935265D01*
X110677109Y-84685829D01*
X110581855Y-84455297D01*
X110502000Y-84375302D01*
X110502000Y-65177224D01*
X112587224Y-63092000D01*
X125530000Y-63092000D01*
X125702973Y-63057594D01*
X125849612Y-62959612D01*
X126212213Y-62597011D01*
X126324171Y-62597109D01*
X126554703Y-62501855D01*
X126731235Y-62325631D01*
X126826891Y-62095265D01*
X126827109Y-61845829D01*
X126731855Y-61615297D01*
X126555631Y-61438765D01*
X126325265Y-61343109D01*
X126075829Y-61342891D01*
X125845297Y-61438145D01*
X125668765Y-61614369D01*
X125573109Y-61844735D01*
X125573010Y-61957766D01*
X125342776Y-62188000D01*
X122398565Y-62188000D01*
X122571235Y-62015631D01*
X122666891Y-61785265D01*
X122667109Y-61535829D01*
X122571855Y-61305297D01*
X122492000Y-61225302D01*
X122492000Y-46407224D01*
X124857224Y-44042000D01*
X130148775Y-44042000D01*
X128140388Y-46050388D01*
X128042406Y-46197027D01*
X128008000Y-46370000D01*
X128008000Y-65092776D01*
X121977787Y-71122989D01*
X121865829Y-71122891D01*
X121635297Y-71218145D01*
X121458765Y-71394369D01*
X121363109Y-71624735D01*
X121362891Y-71874171D01*
X121458145Y-72104703D01*
X121634369Y-72281235D01*
X121807607Y-72353169D01*
X112987787Y-81172989D01*
X112875829Y-81172891D01*
X112645297Y-81268145D01*
X112468765Y-81444369D01*
X112373109Y-81674735D01*
X112372891Y-81924171D01*
X112468145Y-82154703D01*
X112644369Y-82331235D01*
X112704551Y-82356225D01*
X112246962Y-82813814D01*
X112245265Y-82813109D01*
X111995829Y-82812891D01*
X111765297Y-82908145D01*
X111588765Y-83084369D01*
X111493109Y-83314735D01*
X111492891Y-83564171D01*
X111588145Y-83794703D01*
X111728270Y-83935073D01*
X111608765Y-84054369D01*
X111513109Y-84284735D01*
X111512891Y-84534171D01*
X111608145Y-84764703D01*
X111784369Y-84941235D01*
X112014735Y-85036891D01*
X112264171Y-85037109D01*
X112494703Y-84941855D01*
X112671235Y-84765631D01*
X112766891Y-84535265D01*
X112766990Y-84422234D01*
X115207224Y-81982000D01*
X116121278Y-81982000D01*
X116038765Y-82064369D01*
X115943109Y-82294735D01*
X115942891Y-82544171D01*
X116038145Y-82774703D01*
X116214369Y-82951235D01*
X116444735Y-83046891D01*
X116694171Y-83047109D01*
X116924703Y-82951855D01*
X117101235Y-82775631D01*
X117196891Y-82545265D01*
X117197109Y-82295829D01*
X117143394Y-82165830D01*
X129998000Y-69311224D01*
X129998000Y-74135272D01*
X129918765Y-74214369D01*
X129823109Y-74444735D01*
X129822891Y-74694171D01*
X129918145Y-74924703D01*
X130094369Y-75101235D01*
X130324735Y-75196891D01*
X130574171Y-75197109D01*
X130804703Y-75101855D01*
X130981235Y-74925631D01*
X131076891Y-74695265D01*
X131077109Y-74445829D01*
X130981855Y-74215297D01*
X130902000Y-74135302D01*
X130902000Y-69167224D01*
X132348000Y-67721224D01*
X132348000Y-74105272D01*
X132268765Y-74184369D01*
X132173109Y-74414735D01*
X132172891Y-74664171D01*
X132268145Y-74894703D01*
X132444369Y-75071235D01*
X132674735Y-75166891D01*
X132924171Y-75167109D01*
X133154703Y-75071855D01*
X133331235Y-74895631D01*
X133426891Y-74665265D01*
X133427109Y-74415829D01*
X133331855Y-74185297D01*
X133252000Y-74105302D01*
X133252000Y-67487224D01*
X134442968Y-66296256D01*
X134442891Y-66384171D01*
X134538145Y-66614703D01*
X134714369Y-66791235D01*
X134944735Y-66886891D01*
X135057766Y-66886990D01*
X137008000Y-68837225D01*
X137008000Y-72341330D01*
X136895631Y-72228765D01*
X136665265Y-72133109D01*
X136552234Y-72133010D01*
X136162000Y-71742776D01*
X136162000Y-69604728D01*
X136241235Y-69525631D01*
X136336891Y-69295265D01*
X136337109Y-69045829D01*
X136241855Y-68815297D01*
X136065631Y-68638765D01*
X135835265Y-68543109D01*
X135585829Y-68542891D01*
X135355297Y-68638145D01*
X135178765Y-68814369D01*
X135083109Y-69044735D01*
X135082891Y-69294171D01*
X135178145Y-69524703D01*
X135258000Y-69604698D01*
X135258000Y-71930000D01*
X135292406Y-72102973D01*
X135390388Y-72249612D01*
X135912989Y-72772213D01*
X135912891Y-72884171D01*
X136008145Y-73114703D01*
X136184369Y-73291235D01*
X136414735Y-73386891D01*
X136664171Y-73387109D01*
X136894703Y-73291855D01*
X137008000Y-73178756D01*
X137008000Y-76720000D01*
X137042406Y-76892973D01*
X137140388Y-77039612D01*
X142190387Y-82089612D01*
X142337026Y-82187594D01*
X142365724Y-82193302D01*
X142510000Y-82222000D01*
X157170000Y-82222000D01*
X157342973Y-82187594D01*
X157489612Y-82089612D01*
X158759612Y-80819612D01*
X158857594Y-80672973D01*
X158892000Y-80500000D01*
X158892000Y-78371236D01*
X158914703Y-78361855D01*
X159091235Y-78185631D01*
X159186891Y-77955265D01*
X159187109Y-77705829D01*
X159091855Y-77475297D01*
X158915631Y-77298765D01*
X158685265Y-77203109D01*
X158435829Y-77202891D01*
X158205297Y-77298145D01*
X158028765Y-77474369D01*
X157933109Y-77704735D01*
X157932891Y-77954171D01*
X157988000Y-78087545D01*
X157988000Y-80312776D01*
X156982776Y-81318000D01*
X142697225Y-81318000D01*
X137912000Y-76532776D01*
X137912000Y-68650000D01*
X137877594Y-68477027D01*
X137779612Y-68330387D01*
X135697011Y-66247787D01*
X135697109Y-66135829D01*
X135601855Y-65905297D01*
X135425631Y-65728765D01*
X135195265Y-65633109D01*
X135106193Y-65633031D01*
X139707998Y-61031226D01*
X139707998Y-63337446D01*
X139585297Y-63388145D01*
X139408765Y-63564369D01*
X139313109Y-63794735D01*
X139312891Y-64044171D01*
X139408145Y-64274703D01*
X139584369Y-64451235D01*
X139814735Y-64546891D01*
X140064171Y-64547109D01*
X140158000Y-64508340D01*
X140158000Y-70390000D01*
X140192406Y-70562973D01*
X140290388Y-70709612D01*
X144310388Y-74729613D01*
X144426043Y-74806891D01*
X144457027Y-74827594D01*
X144630000Y-74862000D01*
X153390000Y-74862000D01*
X153562973Y-74827594D01*
X153593827Y-74806978D01*
X153744171Y-74807109D01*
X153974703Y-74711855D01*
X154151235Y-74535631D01*
X154246891Y-74305265D01*
X154247109Y-74055829D01*
X154151855Y-73825297D01*
X153975631Y-73648765D01*
X153745265Y-73553109D01*
X153495829Y-73552891D01*
X153265297Y-73648145D01*
X153088765Y-73824369D01*
X153033277Y-73958000D01*
X144817225Y-73958000D01*
X144173396Y-73314171D01*
X147852891Y-73314171D01*
X147948145Y-73544703D01*
X148124369Y-73721235D01*
X148354735Y-73816891D01*
X148604171Y-73817109D01*
X148834703Y-73721855D01*
X149011235Y-73545631D01*
X149106891Y-73315265D01*
X149107109Y-73065829D01*
X149011855Y-72835297D01*
X148932000Y-72755302D01*
X148932000Y-69907224D01*
X150512214Y-68327011D01*
X150624171Y-68327109D01*
X150854703Y-68231855D01*
X151031235Y-68055631D01*
X151126891Y-67825265D01*
X151127109Y-67575829D01*
X151031855Y-67345297D01*
X150855631Y-67168765D01*
X150625265Y-67073109D01*
X150375829Y-67072891D01*
X150145297Y-67168145D01*
X149968765Y-67344369D01*
X149873109Y-67574735D01*
X149873010Y-67687765D01*
X148160388Y-69400388D01*
X148062406Y-69547027D01*
X148028000Y-69720000D01*
X148028000Y-72755272D01*
X147948765Y-72834369D01*
X147853109Y-73064735D01*
X147852891Y-73314171D01*
X144173396Y-73314171D01*
X141062000Y-70202776D01*
X141062000Y-62170418D01*
X141138145Y-62354703D01*
X141314369Y-62531235D01*
X141544735Y-62626891D01*
X141794171Y-62627109D01*
X142024703Y-62531855D01*
X142104698Y-62452000D01*
X143154371Y-62452000D01*
X143115297Y-62468145D01*
X142938765Y-62644369D01*
X142843109Y-62874735D01*
X142842891Y-63124171D01*
X142938145Y-63354703D01*
X143114369Y-63531235D01*
X143344735Y-63626891D01*
X143594171Y-63627109D01*
X143824703Y-63531855D01*
X143904698Y-63452000D01*
X150632776Y-63452000D01*
X154688000Y-67507225D01*
X154688000Y-74412776D01*
X153567787Y-75532989D01*
X153455829Y-75532891D01*
X153225297Y-75628145D01*
X153048765Y-75804369D01*
X152953109Y-76034735D01*
X152952891Y-76284171D01*
X153048145Y-76514703D01*
X153224369Y-76691235D01*
X153454735Y-76786891D01*
X153704171Y-76787109D01*
X153934703Y-76691855D01*
X154111235Y-76515631D01*
X154206891Y-76285265D01*
X154206990Y-76172234D01*
X155459612Y-74919612D01*
X155557594Y-74772973D01*
X155592000Y-74600000D01*
X155592000Y-67320000D01*
X155557594Y-67147027D01*
X155544230Y-67127027D01*
X155459613Y-67000388D01*
X151139612Y-62680388D01*
X150992973Y-62582406D01*
X150820000Y-62548000D01*
X143904728Y-62548000D01*
X143825631Y-62468765D01*
X143785256Y-62452000D01*
X154312776Y-62452000D01*
X159043760Y-67182985D01*
X158935829Y-67182891D01*
X158705297Y-67278145D01*
X158528765Y-67454369D01*
X158433109Y-67684735D01*
X158432891Y-67934171D01*
X158528145Y-68164703D01*
X158608000Y-68244698D01*
X158608000Y-72162775D01*
X153487787Y-77282989D01*
X153375829Y-77282891D01*
X153145297Y-77378145D01*
X152968765Y-77554369D01*
X152873109Y-77784735D01*
X152872891Y-78034171D01*
X152968145Y-78264703D01*
X153144369Y-78441235D01*
X153374735Y-78536891D01*
X153624171Y-78537109D01*
X153854703Y-78441855D01*
X154031235Y-78265631D01*
X154126891Y-78035265D01*
X154126990Y-77922234D01*
X159379612Y-72669613D01*
X159477594Y-72522973D01*
X159492186Y-72449612D01*
X159512000Y-72350000D01*
X159512000Y-68244728D01*
X159553000Y-68203799D01*
X159553000Y-77905000D01*
X159587406Y-78077973D01*
X159685388Y-78224612D01*
X183949000Y-102488224D01*
X183949000Y-131870646D01*
X183565440Y-132029130D01*
X183149591Y-132444254D01*
X182924257Y-132986918D01*
X182923744Y-133574505D01*
X183148130Y-134117560D01*
X183563254Y-134533409D01*
X184105918Y-134758743D01*
X184693505Y-134759256D01*
X185236560Y-134534870D01*
X185652409Y-134119746D01*
X185708000Y-133985868D01*
X185708000Y-137685775D01*
X185079365Y-138314410D01*
X184696082Y-138155257D01*
X184108495Y-138154744D01*
X183565440Y-138379130D01*
X183149591Y-138794254D01*
X182924257Y-139336918D01*
X182923744Y-139924505D01*
X183148130Y-140467560D01*
X183487976Y-140808000D01*
X182026224Y-140808000D01*
X181528590Y-140310366D01*
X181687743Y-139927082D01*
X181688256Y-139339495D01*
X181463870Y-138796440D01*
X181048746Y-138380591D01*
X180506082Y-138155257D01*
X179918495Y-138154744D01*
X179375440Y-138379130D01*
X178959591Y-138794254D01*
X178734257Y-139336918D01*
X178733744Y-139924505D01*
X178958130Y-140467560D01*
X179373254Y-140883409D01*
X179915918Y-141108743D01*
X180503505Y-141109256D01*
X180889530Y-140949754D01*
X181519388Y-141579612D01*
X181666027Y-141677594D01*
X181678123Y-141680000D01*
X105558000Y-141680000D01*
X105558000Y-139924505D01*
X106973744Y-139924505D01*
X107198130Y-140467560D01*
X107613254Y-140883409D01*
X108155918Y-141108743D01*
X108743505Y-141109256D01*
X109286560Y-140884870D01*
X109702409Y-140469746D01*
X109927743Y-139927082D01*
X109927745Y-139924505D01*
X111163744Y-139924505D01*
X111388130Y-140467560D01*
X111803254Y-140883409D01*
X112345918Y-141108743D01*
X112933505Y-141109256D01*
X113476560Y-140884870D01*
X113892409Y-140469746D01*
X114117743Y-139927082D01*
X114117745Y-139924505D01*
X115353744Y-139924505D01*
X115578130Y-140467560D01*
X115993254Y-140883409D01*
X116535918Y-141108743D01*
X117123505Y-141109256D01*
X117666560Y-140884870D01*
X118082409Y-140469746D01*
X118307743Y-139927082D01*
X118307745Y-139924505D01*
X119543744Y-139924505D01*
X119768130Y-140467560D01*
X120183254Y-140883409D01*
X120725918Y-141108743D01*
X121313505Y-141109256D01*
X121856560Y-140884870D01*
X122272409Y-140469746D01*
X122497743Y-139927082D01*
X122497745Y-139924505D01*
X123733744Y-139924505D01*
X123958130Y-140467560D01*
X124373254Y-140883409D01*
X124915918Y-141108743D01*
X125503505Y-141109256D01*
X126046560Y-140884870D01*
X126462409Y-140469746D01*
X126687743Y-139927082D01*
X126687745Y-139924505D01*
X127923744Y-139924505D01*
X128148130Y-140467560D01*
X128563254Y-140883409D01*
X129105918Y-141108743D01*
X129693505Y-141109256D01*
X130142025Y-140923931D01*
X162686571Y-140923931D01*
X162833448Y-141116572D01*
X163448577Y-141239893D01*
X164064076Y-141118426D01*
X164068552Y-141116572D01*
X164215429Y-140923931D01*
X166876571Y-140923931D01*
X167023448Y-141116572D01*
X167638577Y-141239893D01*
X168254076Y-141118426D01*
X168258552Y-141116572D01*
X168405429Y-140923931D01*
X171066571Y-140923931D01*
X171213448Y-141116572D01*
X171828577Y-141239893D01*
X172444076Y-141118426D01*
X172448552Y-141116572D01*
X172595429Y-140923931D01*
X175256571Y-140923931D01*
X175403448Y-141116572D01*
X176018577Y-141239893D01*
X176634076Y-141118426D01*
X176638552Y-141116572D01*
X176785429Y-140923931D01*
X176021000Y-140159502D01*
X175256571Y-140923931D01*
X172595429Y-140923931D01*
X171831000Y-140159502D01*
X171066571Y-140923931D01*
X168405429Y-140923931D01*
X167641000Y-140159502D01*
X166876571Y-140923931D01*
X164215429Y-140923931D01*
X163451000Y-140159502D01*
X162686571Y-140923931D01*
X130142025Y-140923931D01*
X130236560Y-140884870D01*
X130652409Y-140469746D01*
X130877743Y-139927082D01*
X130878002Y-139629577D01*
X161843107Y-139629577D01*
X161964574Y-140245076D01*
X161966428Y-140249552D01*
X162159069Y-140396429D01*
X162923498Y-139632000D01*
X163978502Y-139632000D01*
X164742931Y-140396429D01*
X164935572Y-140249552D01*
X165058893Y-139634423D01*
X165057937Y-139629577D01*
X166033107Y-139629577D01*
X166154574Y-140245076D01*
X166156428Y-140249552D01*
X166349069Y-140396429D01*
X167113498Y-139632000D01*
X168168502Y-139632000D01*
X168932931Y-140396429D01*
X169125572Y-140249552D01*
X169248893Y-139634423D01*
X169247937Y-139629577D01*
X170223107Y-139629577D01*
X170344574Y-140245076D01*
X170346428Y-140249552D01*
X170539069Y-140396429D01*
X171303498Y-139632000D01*
X172358502Y-139632000D01*
X173122931Y-140396429D01*
X173315572Y-140249552D01*
X173438893Y-139634423D01*
X173437937Y-139629577D01*
X174413107Y-139629577D01*
X174534574Y-140245076D01*
X174536428Y-140249552D01*
X174729069Y-140396429D01*
X175493498Y-139632000D01*
X176548502Y-139632000D01*
X177312931Y-140396429D01*
X177505572Y-140249552D01*
X177628893Y-139634423D01*
X177507426Y-139018924D01*
X177505572Y-139014448D01*
X177312931Y-138867571D01*
X176548502Y-139632000D01*
X175493498Y-139632000D01*
X174729069Y-138867571D01*
X174536428Y-139014448D01*
X174413107Y-139629577D01*
X173437937Y-139629577D01*
X173317426Y-139018924D01*
X173315572Y-139014448D01*
X173122931Y-138867571D01*
X172358502Y-139632000D01*
X171303498Y-139632000D01*
X170539069Y-138867571D01*
X170346428Y-139014448D01*
X170223107Y-139629577D01*
X169247937Y-139629577D01*
X169127426Y-139018924D01*
X169125572Y-139014448D01*
X168932931Y-138867571D01*
X168168502Y-139632000D01*
X167113498Y-139632000D01*
X166349069Y-138867571D01*
X166156428Y-139014448D01*
X166033107Y-139629577D01*
X165057937Y-139629577D01*
X164937426Y-139018924D01*
X164935572Y-139014448D01*
X164742931Y-138867571D01*
X163978502Y-139632000D01*
X162923498Y-139632000D01*
X162159069Y-138867571D01*
X161966428Y-139014448D01*
X161843107Y-139629577D01*
X130878002Y-139629577D01*
X130878256Y-139339495D01*
X130653870Y-138796440D01*
X130238746Y-138380591D01*
X129696082Y-138155257D01*
X129108495Y-138154744D01*
X128565440Y-138379130D01*
X128149591Y-138794254D01*
X127924257Y-139336918D01*
X127923744Y-139924505D01*
X126687745Y-139924505D01*
X126688256Y-139339495D01*
X126463870Y-138796440D01*
X126048746Y-138380591D01*
X125506082Y-138155257D01*
X124918495Y-138154744D01*
X124375440Y-138379130D01*
X123959591Y-138794254D01*
X123734257Y-139336918D01*
X123733744Y-139924505D01*
X122497745Y-139924505D01*
X122498256Y-139339495D01*
X122273870Y-138796440D01*
X121858746Y-138380591D01*
X121316082Y-138155257D01*
X120728495Y-138154744D01*
X120185440Y-138379130D01*
X119769591Y-138794254D01*
X119544257Y-139336918D01*
X119543744Y-139924505D01*
X118307745Y-139924505D01*
X118308256Y-139339495D01*
X118083870Y-138796440D01*
X117668746Y-138380591D01*
X117126082Y-138155257D01*
X116538495Y-138154744D01*
X115995440Y-138379130D01*
X115579591Y-138794254D01*
X115354257Y-139336918D01*
X115353744Y-139924505D01*
X114117745Y-139924505D01*
X114118256Y-139339495D01*
X113893870Y-138796440D01*
X113478746Y-138380591D01*
X112936082Y-138155257D01*
X112348495Y-138154744D01*
X111805440Y-138379130D01*
X111389591Y-138794254D01*
X111164257Y-139336918D01*
X111163744Y-139924505D01*
X109927745Y-139924505D01*
X109928256Y-139339495D01*
X109703870Y-138796440D01*
X109288746Y-138380591D01*
X108746082Y-138155257D01*
X108158495Y-138154744D01*
X107615440Y-138379130D01*
X107199591Y-138794254D01*
X106974257Y-139336918D01*
X106973744Y-139924505D01*
X105558000Y-139924505D01*
X105558000Y-138053622D01*
X144503666Y-138053622D01*
X144796416Y-138762132D01*
X145338017Y-139304678D01*
X146046014Y-139598665D01*
X146812622Y-139599334D01*
X147521132Y-139306584D01*
X148063678Y-138764983D01*
X148240118Y-138340069D01*
X162686571Y-138340069D01*
X163451000Y-139104498D01*
X164215429Y-138340069D01*
X166876571Y-138340069D01*
X167641000Y-139104498D01*
X168405429Y-138340069D01*
X171066571Y-138340069D01*
X171831000Y-139104498D01*
X172595429Y-138340069D01*
X175256571Y-138340069D01*
X176021000Y-139104498D01*
X176785429Y-138340069D01*
X176638552Y-138147428D01*
X176023423Y-138024107D01*
X175407924Y-138145574D01*
X175403448Y-138147428D01*
X175256571Y-138340069D01*
X172595429Y-138340069D01*
X172448552Y-138147428D01*
X171833423Y-138024107D01*
X171217924Y-138145574D01*
X171213448Y-138147428D01*
X171066571Y-138340069D01*
X168405429Y-138340069D01*
X168258552Y-138147428D01*
X167643423Y-138024107D01*
X167027924Y-138145574D01*
X167023448Y-138147428D01*
X166876571Y-138340069D01*
X164215429Y-138340069D01*
X164068552Y-138147428D01*
X163453423Y-138024107D01*
X162837924Y-138145574D01*
X162833448Y-138147428D01*
X162686571Y-138340069D01*
X148240118Y-138340069D01*
X148357665Y-138056986D01*
X148358334Y-137290378D01*
X148065584Y-136581868D01*
X147523983Y-136039322D01*
X146815986Y-135745335D01*
X146049378Y-135744666D01*
X145340868Y-136037416D01*
X144798322Y-136579017D01*
X144504335Y-137287014D01*
X144503666Y-138053622D01*
X105558000Y-138053622D01*
X105558000Y-133574505D01*
X106973744Y-133574505D01*
X107198130Y-134117560D01*
X107613254Y-134533409D01*
X108155918Y-134758743D01*
X108743505Y-134759256D01*
X109286560Y-134534870D01*
X109702409Y-134119746D01*
X109927743Y-133577082D01*
X109927745Y-133574505D01*
X111163744Y-133574505D01*
X111388130Y-134117560D01*
X111803254Y-134533409D01*
X112345918Y-134758743D01*
X112933505Y-134759256D01*
X113476560Y-134534870D01*
X113892409Y-134119746D01*
X114117743Y-133577082D01*
X114117745Y-133574505D01*
X115353744Y-133574505D01*
X115578130Y-134117560D01*
X115993254Y-134533409D01*
X116535918Y-134758743D01*
X117123505Y-134759256D01*
X117666560Y-134534870D01*
X118082409Y-134119746D01*
X118307743Y-133577082D01*
X118307745Y-133574505D01*
X119543744Y-133574505D01*
X119768130Y-134117560D01*
X120183254Y-134533409D01*
X120725918Y-134758743D01*
X121313505Y-134759256D01*
X121856560Y-134534870D01*
X122272409Y-134119746D01*
X122497743Y-133577082D01*
X122497745Y-133574505D01*
X123733744Y-133574505D01*
X123958130Y-134117560D01*
X124373254Y-134533409D01*
X124915918Y-134758743D01*
X125503505Y-134759256D01*
X126046560Y-134534870D01*
X126462409Y-134119746D01*
X126613299Y-133756363D01*
X126795157Y-133574505D01*
X127923744Y-133574505D01*
X128148130Y-134117560D01*
X128563254Y-134533409D01*
X129105918Y-134758743D01*
X129693505Y-134759256D01*
X130236560Y-134534870D01*
X130652409Y-134119746D01*
X130803299Y-133756363D01*
X135912662Y-128647000D01*
X153165400Y-128647000D01*
X153673221Y-128545988D01*
X154103731Y-128258331D01*
X157007279Y-125354783D01*
X157368160Y-125205670D01*
X157784009Y-124790546D01*
X158009343Y-124247882D01*
X158009856Y-123660295D01*
X157785470Y-123117240D01*
X157370346Y-122701391D01*
X156827682Y-122476057D01*
X156240095Y-122475544D01*
X155697040Y-122699930D01*
X155281191Y-123115054D01*
X155130301Y-123478437D01*
X152615738Y-125993000D01*
X135363000Y-125993000D01*
X134855179Y-126094012D01*
X134424669Y-126381669D01*
X128926321Y-131880017D01*
X128565440Y-132029130D01*
X128149591Y-132444254D01*
X127924257Y-132986918D01*
X127923744Y-133574505D01*
X126795157Y-133574505D01*
X135089862Y-125279800D01*
X139876897Y-125279800D01*
X140237518Y-125429543D01*
X140825105Y-125430056D01*
X141368160Y-125205670D01*
X141784009Y-124790546D01*
X142009343Y-124247882D01*
X142009856Y-123660295D01*
X141785470Y-123117240D01*
X141370346Y-122701391D01*
X140827682Y-122476057D01*
X140240095Y-122475544D01*
X139876448Y-122625800D01*
X134540200Y-122625800D01*
X134032379Y-122726812D01*
X133601869Y-123014469D01*
X124736321Y-131880017D01*
X124375440Y-132029130D01*
X123959591Y-132444254D01*
X123734257Y-132986918D01*
X123733744Y-133574505D01*
X122497745Y-133574505D01*
X122498256Y-132989495D01*
X122348000Y-132625848D01*
X122348000Y-128014062D01*
X125007277Y-125354784D01*
X125368160Y-125205670D01*
X125784009Y-124790546D01*
X126009343Y-124247882D01*
X126009856Y-123660295D01*
X125785470Y-123117240D01*
X125370346Y-122701391D01*
X124827682Y-122476057D01*
X124240095Y-122475544D01*
X123697040Y-122699930D01*
X123281191Y-123115054D01*
X123130300Y-123478438D01*
X120082669Y-126526069D01*
X119795012Y-126956579D01*
X119694000Y-127464400D01*
X119694000Y-132626297D01*
X119544257Y-132986918D01*
X119543744Y-133574505D01*
X118307745Y-133574505D01*
X118308256Y-132989495D01*
X118158000Y-132625848D01*
X118158000Y-112045305D01*
X123055344Y-112045305D01*
X123279730Y-112588360D01*
X123694854Y-113004209D01*
X124237518Y-113229543D01*
X124825105Y-113230056D01*
X125368160Y-113005670D01*
X125784009Y-112590546D01*
X126009343Y-112047882D01*
X126009856Y-111460295D01*
X125785470Y-110917240D01*
X125370346Y-110501391D01*
X124827682Y-110276057D01*
X124240095Y-110275544D01*
X123697040Y-110499930D01*
X123281191Y-110915054D01*
X123055857Y-111457718D01*
X123055344Y-112045305D01*
X118158000Y-112045305D01*
X118158000Y-104652800D01*
X127955600Y-104652800D01*
X128151762Y-105638976D01*
X128710386Y-106475014D01*
X129485372Y-107250000D01*
X128994877Y-107740495D01*
X128710386Y-107930586D01*
X128151762Y-108766625D01*
X127955600Y-109752800D01*
X128151762Y-110738975D01*
X128710386Y-111575014D01*
X129546425Y-112133638D01*
X130532600Y-112329800D01*
X130627000Y-112329800D01*
X131613176Y-112133638D01*
X131745375Y-112045305D01*
X135055344Y-112045305D01*
X135279730Y-112588360D01*
X135694854Y-113004209D01*
X136237518Y-113229543D01*
X136825105Y-113230056D01*
X137368160Y-113005670D01*
X137784009Y-112590546D01*
X138009343Y-112047882D01*
X138009345Y-112045305D01*
X139055344Y-112045305D01*
X139279730Y-112588360D01*
X139694854Y-113004209D01*
X140237518Y-113229543D01*
X140825105Y-113230056D01*
X141368160Y-113005670D01*
X141784009Y-112590546D01*
X142009343Y-112047882D01*
X142009856Y-111460295D01*
X141785470Y-110917240D01*
X141370346Y-110501391D01*
X140827682Y-110276057D01*
X140240095Y-110275544D01*
X139697040Y-110499930D01*
X139281191Y-110915054D01*
X139055857Y-111457718D01*
X139055344Y-112045305D01*
X138009345Y-112045305D01*
X138009856Y-111460295D01*
X137785470Y-110917240D01*
X137370346Y-110501391D01*
X136827682Y-110276057D01*
X136240095Y-110275544D01*
X135697040Y-110499930D01*
X135281191Y-110915054D01*
X135055857Y-111457718D01*
X135055344Y-112045305D01*
X131745375Y-112045305D01*
X132449214Y-111575014D01*
X134197228Y-109827000D01*
X143970359Y-109827000D01*
X144151762Y-110738975D01*
X144710386Y-111575014D01*
X145546425Y-112133638D01*
X146532600Y-112329800D01*
X147518775Y-112133638D01*
X147650974Y-112045305D01*
X151055344Y-112045305D01*
X151279730Y-112588360D01*
X151694854Y-113004209D01*
X152237518Y-113229543D01*
X152825105Y-113230056D01*
X153368160Y-113005670D01*
X153784009Y-112590546D01*
X154009343Y-112047882D01*
X154009345Y-112045305D01*
X155055344Y-112045305D01*
X155279730Y-112588360D01*
X155694854Y-113004209D01*
X156237518Y-113229543D01*
X156825105Y-113230056D01*
X157368160Y-113005670D01*
X157784009Y-112590546D01*
X158009343Y-112047882D01*
X158009856Y-111460295D01*
X157785470Y-110917240D01*
X157370346Y-110501391D01*
X156827682Y-110276057D01*
X156240095Y-110275544D01*
X155697040Y-110499930D01*
X155281191Y-110915054D01*
X155055857Y-111457718D01*
X155055344Y-112045305D01*
X154009345Y-112045305D01*
X154009856Y-111460295D01*
X153785470Y-110917240D01*
X153370346Y-110501391D01*
X152827682Y-110276057D01*
X152240095Y-110275544D01*
X151697040Y-110499930D01*
X151281191Y-110915054D01*
X151055857Y-111457718D01*
X151055344Y-112045305D01*
X147650974Y-112045305D01*
X148354814Y-111575014D01*
X148913438Y-110738975D01*
X149094841Y-109827000D01*
X159970359Y-109827000D01*
X160151762Y-110738975D01*
X160710386Y-111575014D01*
X161546425Y-112133638D01*
X162532600Y-112329800D01*
X163518775Y-112133638D01*
X163650974Y-112045305D01*
X167055344Y-112045305D01*
X167279730Y-112588360D01*
X167694854Y-113004209D01*
X168237518Y-113229543D01*
X168825105Y-113230056D01*
X169368160Y-113005670D01*
X169784009Y-112590546D01*
X170009343Y-112047882D01*
X170009856Y-111460295D01*
X169785470Y-110917240D01*
X169370346Y-110501391D01*
X168827682Y-110276057D01*
X168240095Y-110275544D01*
X167697040Y-110499930D01*
X167281191Y-110915054D01*
X167055857Y-111457718D01*
X167055344Y-112045305D01*
X163650974Y-112045305D01*
X164354814Y-111575014D01*
X164913438Y-110738975D01*
X165094841Y-109827000D01*
X171932572Y-109827000D01*
X173444000Y-111338428D01*
X173444000Y-130705000D01*
X163451000Y-130705000D01*
X162464825Y-130901162D01*
X161628786Y-131459786D01*
X161070162Y-132295825D01*
X160874000Y-133282000D01*
X161070162Y-134268175D01*
X161628786Y-135104214D01*
X162464825Y-135662838D01*
X163451000Y-135859000D01*
X180211000Y-135859000D01*
X181197175Y-135662838D01*
X182033214Y-135104214D01*
X182591838Y-134268175D01*
X182788000Y-133282000D01*
X182591838Y-132295825D01*
X182033214Y-131459786D01*
X181197175Y-130901162D01*
X180211000Y-130705000D01*
X178598000Y-130705000D01*
X178598000Y-110271000D01*
X178436741Y-109460295D01*
X178401838Y-109284824D01*
X177843214Y-108448786D01*
X174822214Y-105427786D01*
X173986176Y-104869162D01*
X173000000Y-104673000D01*
X165109600Y-104673000D01*
X165109600Y-104652800D01*
X164913438Y-103666625D01*
X164431467Y-102945305D01*
X167055344Y-102945305D01*
X167279730Y-103488360D01*
X167694854Y-103904209D01*
X168237518Y-104129543D01*
X168825105Y-104130056D01*
X169368160Y-103905670D01*
X169784009Y-103490546D01*
X170009343Y-102947882D01*
X170009856Y-102360295D01*
X169785470Y-101817240D01*
X169370346Y-101401391D01*
X168827682Y-101176057D01*
X168240095Y-101175544D01*
X167697040Y-101399930D01*
X167281191Y-101815054D01*
X167055857Y-102357718D01*
X167055344Y-102945305D01*
X164431467Y-102945305D01*
X164354814Y-102830586D01*
X163518775Y-102271962D01*
X162532600Y-102075800D01*
X161546425Y-102271962D01*
X160710386Y-102830586D01*
X160151762Y-103666625D01*
X159955600Y-104652800D01*
X159955600Y-104673000D01*
X149109600Y-104673000D01*
X149109600Y-104652800D01*
X148913438Y-103666625D01*
X148431467Y-102945305D01*
X151055344Y-102945305D01*
X151279730Y-103488360D01*
X151694854Y-103904209D01*
X152237518Y-104129543D01*
X152825105Y-104130056D01*
X153368160Y-103905670D01*
X153784009Y-103490546D01*
X154009343Y-102947882D01*
X154009345Y-102945305D01*
X155055344Y-102945305D01*
X155279730Y-103488360D01*
X155694854Y-103904209D01*
X156237518Y-104129543D01*
X156825105Y-104130056D01*
X157368160Y-103905670D01*
X157784009Y-103490546D01*
X158009343Y-102947882D01*
X158009856Y-102360295D01*
X157785470Y-101817240D01*
X157370346Y-101401391D01*
X156827682Y-101176057D01*
X156240095Y-101175544D01*
X155697040Y-101399930D01*
X155281191Y-101815054D01*
X155055857Y-102357718D01*
X155055344Y-102945305D01*
X154009345Y-102945305D01*
X154009856Y-102360295D01*
X153785470Y-101817240D01*
X153370346Y-101401391D01*
X152827682Y-101176057D01*
X152240095Y-101175544D01*
X151697040Y-101399930D01*
X151281191Y-101815054D01*
X151055857Y-102357718D01*
X151055344Y-102945305D01*
X148431467Y-102945305D01*
X148354814Y-102830586D01*
X147518775Y-102271962D01*
X146532600Y-102075800D01*
X145546425Y-102271962D01*
X144710386Y-102830586D01*
X144151762Y-103666625D01*
X143955600Y-104652800D01*
X143955600Y-104673000D01*
X134197229Y-104673000D01*
X132469534Y-102945305D01*
X135055344Y-102945305D01*
X135279730Y-103488360D01*
X135694854Y-103904209D01*
X136237518Y-104129543D01*
X136825105Y-104130056D01*
X137368160Y-103905670D01*
X137784009Y-103490546D01*
X138009343Y-102947882D01*
X138009345Y-102945305D01*
X139055344Y-102945305D01*
X139279730Y-103488360D01*
X139694854Y-103904209D01*
X140237518Y-104129543D01*
X140825105Y-104130056D01*
X141368160Y-103905670D01*
X141784009Y-103490546D01*
X142009343Y-102947882D01*
X142009856Y-102360295D01*
X141785470Y-101817240D01*
X141370346Y-101401391D01*
X140827682Y-101176057D01*
X140240095Y-101175544D01*
X139697040Y-101399930D01*
X139281191Y-101815054D01*
X139055857Y-102357718D01*
X139055344Y-102945305D01*
X138009345Y-102945305D01*
X138009856Y-102360295D01*
X137785470Y-101817240D01*
X137370346Y-101401391D01*
X136827682Y-101176057D01*
X136240095Y-101175544D01*
X135697040Y-101399930D01*
X135281191Y-101815054D01*
X135055857Y-102357718D01*
X135055344Y-102945305D01*
X132469534Y-102945305D01*
X132354814Y-102830586D01*
X131518776Y-102271962D01*
X130532600Y-102075800D01*
X129546424Y-102271962D01*
X128710386Y-102830586D01*
X128151762Y-103666624D01*
X127955600Y-104652800D01*
X118158000Y-104652800D01*
X118158000Y-102945305D01*
X123055344Y-102945305D01*
X123279730Y-103488360D01*
X123694854Y-103904209D01*
X124237518Y-104129543D01*
X124825105Y-104130056D01*
X125368160Y-103905670D01*
X125784009Y-103490546D01*
X126009343Y-102947882D01*
X126009856Y-102360295D01*
X125785470Y-101817240D01*
X125370346Y-101401391D01*
X124827682Y-101176057D01*
X124240095Y-101175544D01*
X123697040Y-101399930D01*
X123281191Y-101815054D01*
X123055857Y-102357718D01*
X123055344Y-102945305D01*
X118158000Y-102945305D01*
X118158000Y-93158662D01*
X119536861Y-91779800D01*
X135876897Y-91779800D01*
X136237518Y-91929543D01*
X136825105Y-91930056D01*
X137368160Y-91705670D01*
X137784009Y-91290546D01*
X138009343Y-90747882D01*
X138009856Y-90160295D01*
X137785470Y-89617240D01*
X137370346Y-89201391D01*
X136827682Y-88976057D01*
X136240095Y-88975544D01*
X135876448Y-89125800D01*
X118987200Y-89125800D01*
X118479379Y-89226812D01*
X118048869Y-89514469D01*
X118048867Y-89514472D01*
X115892669Y-91670669D01*
X115605012Y-92101179D01*
X115504000Y-92609000D01*
X115504000Y-132626297D01*
X115354257Y-132986918D01*
X115353744Y-133574505D01*
X114117745Y-133574505D01*
X114118256Y-132989495D01*
X113968000Y-132625848D01*
X113968000Y-93338662D01*
X118389661Y-88917000D01*
X149120138Y-88917000D01*
X151130616Y-90927477D01*
X151279730Y-91288360D01*
X151694854Y-91704209D01*
X152237518Y-91929543D01*
X152825105Y-91930056D01*
X153368160Y-91705670D01*
X153784009Y-91290546D01*
X154009343Y-90747882D01*
X154009856Y-90160295D01*
X153785470Y-89617240D01*
X153370346Y-89201391D01*
X153006962Y-89050500D01*
X150608131Y-86651669D01*
X150177621Y-86364012D01*
X149669800Y-86263000D01*
X117840000Y-86263000D01*
X117332179Y-86364012D01*
X116901669Y-86651669D01*
X116901667Y-86651672D01*
X111702669Y-91850669D01*
X111415012Y-92281179D01*
X111314000Y-92789000D01*
X111314000Y-132626297D01*
X111164257Y-132986918D01*
X111163744Y-133574505D01*
X109927745Y-133574505D01*
X109928256Y-132989495D01*
X109778000Y-132625848D01*
X109778000Y-93548662D01*
X117249661Y-86077000D01*
X162280138Y-86077000D01*
X167130617Y-90927479D01*
X167279730Y-91288360D01*
X167694854Y-91704209D01*
X168237518Y-91929543D01*
X168825105Y-91930056D01*
X169368160Y-91705670D01*
X169784009Y-91290546D01*
X170009343Y-90747882D01*
X170009856Y-90160295D01*
X169785470Y-89617240D01*
X169370346Y-89201391D01*
X169006963Y-89050501D01*
X163768131Y-83811669D01*
X163337621Y-83524012D01*
X162829800Y-83423000D01*
X116700005Y-83423000D01*
X116700000Y-83422999D01*
X116192179Y-83524012D01*
X115761669Y-83811669D01*
X115761667Y-83811672D01*
X107512669Y-92060669D01*
X107225012Y-92491179D01*
X107124000Y-92999000D01*
X107124000Y-132626297D01*
X106974257Y-132986918D01*
X106973744Y-133574505D01*
X105558000Y-133574505D01*
X105558000Y-46648514D01*
X106512343Y-45694171D01*
X119152891Y-45694171D01*
X119248145Y-45924703D01*
X119268000Y-45944593D01*
X119268000Y-46910000D01*
X119302406Y-47082973D01*
X119400388Y-47229612D01*
X119547027Y-47327594D01*
X119720000Y-47362000D01*
X119892973Y-47327594D01*
X120039612Y-47229612D01*
X120137594Y-47082973D01*
X120172000Y-46910000D01*
X120172000Y-46064623D01*
X120311235Y-45925631D01*
X120406891Y-45695265D01*
X120407109Y-45445829D01*
X120311855Y-45215297D01*
X120135631Y-45038765D01*
X119905265Y-44943109D01*
X119655829Y-44942891D01*
X119425297Y-45038145D01*
X119248765Y-45214369D01*
X119153109Y-45444735D01*
X119152891Y-45694171D01*
X106512343Y-45694171D01*
X111322514Y-40884000D01*
X181490462Y-40884000D01*
X187304000Y-46649492D01*
X187304000Y-46649492D01*
G37*
X187304000Y-46649492D02*
X187304000Y-141680000D01*
X185490877Y-141680000D01*
X185502973Y-141677594D01*
X185649612Y-141579612D01*
X186959612Y-140269612D01*
X187057594Y-140122973D01*
X187092000Y-139950000D01*
X187092000Y-75470000D01*
X187057594Y-75297027D01*
X186959612Y-75150387D01*
X175499612Y-63690388D01*
X175352973Y-63592406D01*
X175180000Y-63558000D01*
X169180000Y-63558000D01*
X169007027Y-63592406D01*
X168860388Y-63690387D01*
X168387787Y-64162989D01*
X168275829Y-64162891D01*
X168045297Y-64258145D01*
X167868765Y-64434369D01*
X167773109Y-64664735D01*
X167772891Y-64914171D01*
X167868145Y-65144703D01*
X168044369Y-65321235D01*
X168274735Y-65416891D01*
X168524171Y-65417109D01*
X168754703Y-65321855D01*
X168931235Y-65145631D01*
X169026891Y-64915265D01*
X169026990Y-64802235D01*
X169367225Y-64462000D01*
X171561138Y-64462000D01*
X171558765Y-64464369D01*
X171463109Y-64694735D01*
X171462891Y-64944171D01*
X171558145Y-65174703D01*
X171638000Y-65254698D01*
X171638000Y-71942776D01*
X168687787Y-74892989D01*
X168575829Y-74892891D01*
X168345297Y-74988145D01*
X168168765Y-75164369D01*
X168073109Y-75394735D01*
X168072891Y-75644171D01*
X168168145Y-75874703D01*
X168344369Y-76051235D01*
X168574735Y-76146891D01*
X168824171Y-76147109D01*
X169054703Y-76051855D01*
X169231235Y-75875631D01*
X169326891Y-75645265D01*
X169326990Y-75532234D01*
X172409612Y-72449612D01*
X172507594Y-72302973D01*
X172542000Y-72130000D01*
X172542000Y-65272000D01*
X174182776Y-65272000D01*
X185708000Y-76797224D01*
X185708000Y-132577444D01*
X185653870Y-132446440D01*
X185238746Y-132030591D01*
X184853000Y-131870415D01*
X184853000Y-102301000D01*
X184818594Y-102128027D01*
X184720612Y-101981388D01*
X160457000Y-77717776D01*
X160457000Y-76324171D01*
X160632891Y-76324171D01*
X160728145Y-76554703D01*
X160904369Y-76731235D01*
X161134735Y-76826891D01*
X161384171Y-76827109D01*
X161614703Y-76731855D01*
X161791235Y-76555631D01*
X161886891Y-76325265D01*
X161887109Y-76075829D01*
X161791855Y-75845297D01*
X161712000Y-75765302D01*
X161712000Y-71064693D01*
X161811235Y-70965631D01*
X161906891Y-70735265D01*
X161907109Y-70485829D01*
X161811855Y-70255297D01*
X161635631Y-70078765D01*
X161405265Y-69983109D01*
X161155829Y-69982891D01*
X160925297Y-70078145D01*
X160748765Y-70254369D01*
X160653109Y-70484735D01*
X160652891Y-70734171D01*
X160748145Y-70964703D01*
X160808000Y-71024663D01*
X160808000Y-75765272D01*
X160728765Y-75844369D01*
X160633109Y-76074735D01*
X160632891Y-76324171D01*
X160457000Y-76324171D01*
X160457000Y-67505000D01*
X160422594Y-67332027D01*
X160386591Y-67278145D01*
X160324613Y-67185388D01*
X154819612Y-61680388D01*
X154672973Y-61582406D01*
X154500000Y-61548000D01*
X142104728Y-61548000D01*
X142025631Y-61468765D01*
X141795265Y-61373109D01*
X141545829Y-61372891D01*
X141315297Y-61468145D01*
X141138765Y-61644369D01*
X141062000Y-61829240D01*
X141062000Y-61027224D01*
X141156619Y-60932606D01*
X141178145Y-60984703D01*
X141354369Y-61161235D01*
X141584735Y-61256891D01*
X141834171Y-61257109D01*
X142064703Y-61161855D01*
X142241235Y-60985631D01*
X142246459Y-60973049D01*
X142404369Y-61131235D01*
X142634735Y-61226891D01*
X142884171Y-61227109D01*
X143114703Y-61131855D01*
X143194698Y-61052000D01*
X155462776Y-61052000D01*
X164558000Y-70147224D01*
X164558000Y-78950000D01*
X164592406Y-79122973D01*
X164690388Y-79269612D01*
X172042989Y-86622213D01*
X172042891Y-86734171D01*
X172138145Y-86964703D01*
X172314369Y-87141235D01*
X172544735Y-87236891D01*
X172794171Y-87237109D01*
X173024703Y-87141855D01*
X173201235Y-86965631D01*
X173296891Y-86735265D01*
X173297109Y-86485829D01*
X173201855Y-86255297D01*
X173025631Y-86078765D01*
X172795265Y-85983109D01*
X172682234Y-85983010D01*
X165462000Y-78762776D01*
X165462000Y-69960000D01*
X165427594Y-69787027D01*
X165329612Y-69640388D01*
X156011224Y-60322000D01*
X166860000Y-60322000D01*
X167032973Y-60287594D01*
X167179612Y-60189612D01*
X169889612Y-57479612D01*
X169987594Y-57332973D01*
X170022000Y-57160000D01*
X170022000Y-54227224D01*
X170532213Y-53717011D01*
X170644171Y-53717109D01*
X170874703Y-53621855D01*
X171051235Y-53445631D01*
X171146891Y-53215265D01*
X171147109Y-52965829D01*
X171051855Y-52735297D01*
X170875631Y-52558765D01*
X170645265Y-52463109D01*
X170613918Y-52463082D01*
X170834703Y-52371855D01*
X171011235Y-52195631D01*
X171106891Y-51965265D01*
X171107109Y-51715829D01*
X171011855Y-51485297D01*
X170835631Y-51308765D01*
X170605265Y-51213109D01*
X170456245Y-51212979D01*
X170522213Y-51147011D01*
X170634171Y-51147109D01*
X170864703Y-51051855D01*
X171041235Y-50875631D01*
X171136891Y-50645265D01*
X171137109Y-50395829D01*
X171041855Y-50165297D01*
X170865631Y-49988765D01*
X170635265Y-49893109D01*
X170385829Y-49892891D01*
X170155297Y-49988145D01*
X169978765Y-50164369D01*
X169883109Y-50394735D01*
X169883010Y-50507766D01*
X168260388Y-52130388D01*
X168162406Y-52277027D01*
X168128000Y-52450000D01*
X168128000Y-56632776D01*
X166482776Y-58278000D01*
X143317224Y-58278000D01*
X143247011Y-58207787D01*
X143247109Y-58095829D01*
X143151855Y-57865297D01*
X142975631Y-57688765D01*
X142830657Y-57628567D01*
X143397224Y-57062000D01*
X146050000Y-57062000D01*
X146222973Y-57027594D01*
X146369612Y-56929612D01*
X147579612Y-55719613D01*
X147677594Y-55572973D01*
X147685896Y-55531235D01*
X147712000Y-55400000D01*
X147712000Y-50640000D01*
X147677594Y-50467027D01*
X147579612Y-50320388D01*
X147062310Y-49803086D01*
X147234703Y-49731855D01*
X147314698Y-49652000D01*
X155912776Y-49652000D01*
X158808000Y-52547224D01*
X158808000Y-56085272D01*
X158728765Y-56164369D01*
X158633109Y-56394735D01*
X158632891Y-56644171D01*
X158728145Y-56874703D01*
X158904369Y-57051235D01*
X159134735Y-57146891D01*
X159384171Y-57147109D01*
X159614703Y-57051855D01*
X159791235Y-56875631D01*
X159886891Y-56645265D01*
X159887109Y-56395829D01*
X159791855Y-56165297D01*
X159712000Y-56085302D01*
X159712000Y-52360000D01*
X159677594Y-52187027D01*
X159579612Y-52040388D01*
X156419612Y-48880388D01*
X156317263Y-48812000D01*
X171312776Y-48812000D01*
X184382989Y-61882213D01*
X184382891Y-61994171D01*
X184478145Y-62224703D01*
X184654369Y-62401235D01*
X184884735Y-62496891D01*
X185134171Y-62497109D01*
X185364703Y-62401855D01*
X185541235Y-62225631D01*
X185636891Y-61995265D01*
X185637109Y-61745829D01*
X185541855Y-61515297D01*
X185365631Y-61338765D01*
X185135265Y-61243109D01*
X185022234Y-61243010D01*
X171819612Y-48040388D01*
X171672973Y-47942406D01*
X171500000Y-47908000D01*
X144269831Y-47908000D01*
X144284703Y-47901855D01*
X144461235Y-47725631D01*
X144556891Y-47495265D01*
X144557109Y-47245829D01*
X144461855Y-47015297D01*
X144285631Y-46838765D01*
X144133591Y-46775633D01*
X144467224Y-46442000D01*
X170532776Y-46442000D01*
X175452989Y-51362213D01*
X175452891Y-51474171D01*
X175548145Y-51704703D01*
X175724369Y-51881235D01*
X175954735Y-51976891D01*
X176204171Y-51977109D01*
X176434703Y-51881855D01*
X176611235Y-51705631D01*
X176706891Y-51475265D01*
X176707109Y-51225829D01*
X176611855Y-50995297D01*
X176435631Y-50818765D01*
X176205265Y-50723109D01*
X176092234Y-50723010D01*
X171039612Y-45670388D01*
X170892973Y-45572406D01*
X170720000Y-45538000D01*
X144280000Y-45538000D01*
X144107027Y-45572406D01*
X143960388Y-45670388D01*
X143934315Y-45696461D01*
X143871855Y-45545297D01*
X143792000Y-45465302D01*
X143792000Y-43490000D01*
X143757594Y-43317027D01*
X143659612Y-43170388D01*
X143279612Y-42790388D01*
X143132973Y-42692406D01*
X142960000Y-42658000D01*
X141440000Y-42658000D01*
X141267027Y-42692406D01*
X141120388Y-42790388D01*
X140772776Y-43138000D01*
X124670000Y-43138000D01*
X124497027Y-43172406D01*
X124350388Y-43270388D01*
X121720388Y-45900388D01*
X121622406Y-46047027D01*
X121588000Y-46220000D01*
X121588000Y-61225272D01*
X121508765Y-61304369D01*
X121413109Y-61534735D01*
X121412891Y-61784171D01*
X121508145Y-62014703D01*
X121681140Y-62188000D01*
X118598556Y-62188000D01*
X118686891Y-61975265D01*
X118687109Y-61725829D01*
X118591855Y-61495297D01*
X118415631Y-61318765D01*
X118185265Y-61223109D01*
X117935829Y-61222891D01*
X117705297Y-61318145D01*
X117625302Y-61398000D01*
X111620000Y-61398000D01*
X111447027Y-61432406D01*
X111300388Y-61530388D01*
X108720388Y-64110388D01*
X108622406Y-64257027D01*
X108588000Y-64430000D01*
X108588000Y-84355272D01*
X108579953Y-84363305D01*
X108552000Y-84335302D01*
X108552000Y-63907224D01*
X109972213Y-62487011D01*
X110084171Y-62487109D01*
X110314703Y-62391855D01*
X110491235Y-62215631D01*
X110586891Y-61985265D01*
X110587109Y-61735829D01*
X110491855Y-61505297D01*
X110315631Y-61328765D01*
X110085265Y-61233109D01*
X109835829Y-61232891D01*
X109605297Y-61328145D01*
X109428765Y-61504369D01*
X109333109Y-61734735D01*
X109333010Y-61847766D01*
X107780388Y-63400388D01*
X107682406Y-63547027D01*
X107648000Y-63720000D01*
X107648000Y-84335272D01*
X107568765Y-84414369D01*
X107473109Y-84644735D01*
X107472891Y-84894171D01*
X107568145Y-85124703D01*
X107744369Y-85301235D01*
X107974735Y-85396891D01*
X108224171Y-85397109D01*
X108454703Y-85301855D01*
X108560047Y-85196695D01*
X108684369Y-85321235D01*
X108914735Y-85416891D01*
X109164171Y-85417109D01*
X109394703Y-85321855D01*
X109535108Y-85181695D01*
X109694369Y-85341235D01*
X109924735Y-85436891D01*
X110174171Y-85437109D01*
X110404703Y-85341855D01*
X110581235Y-85165631D01*
X110676891Y-84935265D01*
X110677109Y-84685829D01*
X110581855Y-84455297D01*
X110502000Y-84375302D01*
X110502000Y-65177224D01*
X112587224Y-63092000D01*
X125530000Y-63092000D01*
X125702973Y-63057594D01*
X125849612Y-62959612D01*
X126212213Y-62597011D01*
X126324171Y-62597109D01*
X126554703Y-62501855D01*
X126731235Y-62325631D01*
X126826891Y-62095265D01*
X126827109Y-61845829D01*
X126731855Y-61615297D01*
X126555631Y-61438765D01*
X126325265Y-61343109D01*
X126075829Y-61342891D01*
X125845297Y-61438145D01*
X125668765Y-61614369D01*
X125573109Y-61844735D01*
X125573010Y-61957766D01*
X125342776Y-62188000D01*
X122398565Y-62188000D01*
X122571235Y-62015631D01*
X122666891Y-61785265D01*
X122667109Y-61535829D01*
X122571855Y-61305297D01*
X122492000Y-61225302D01*
X122492000Y-46407224D01*
X124857224Y-44042000D01*
X130148775Y-44042000D01*
X128140388Y-46050388D01*
X128042406Y-46197027D01*
X128008000Y-46370000D01*
X128008000Y-65092776D01*
X121977787Y-71122989D01*
X121865829Y-71122891D01*
X121635297Y-71218145D01*
X121458765Y-71394369D01*
X121363109Y-71624735D01*
X121362891Y-71874171D01*
X121458145Y-72104703D01*
X121634369Y-72281235D01*
X121807607Y-72353169D01*
X112987787Y-81172989D01*
X112875829Y-81172891D01*
X112645297Y-81268145D01*
X112468765Y-81444369D01*
X112373109Y-81674735D01*
X112372891Y-81924171D01*
X112468145Y-82154703D01*
X112644369Y-82331235D01*
X112704551Y-82356225D01*
X112246962Y-82813814D01*
X112245265Y-82813109D01*
X111995829Y-82812891D01*
X111765297Y-82908145D01*
X111588765Y-83084369D01*
X111493109Y-83314735D01*
X111492891Y-83564171D01*
X111588145Y-83794703D01*
X111728270Y-83935073D01*
X111608765Y-84054369D01*
X111513109Y-84284735D01*
X111512891Y-84534171D01*
X111608145Y-84764703D01*
X111784369Y-84941235D01*
X112014735Y-85036891D01*
X112264171Y-85037109D01*
X112494703Y-84941855D01*
X112671235Y-84765631D01*
X112766891Y-84535265D01*
X112766990Y-84422234D01*
X115207224Y-81982000D01*
X116121278Y-81982000D01*
X116038765Y-82064369D01*
X115943109Y-82294735D01*
X115942891Y-82544171D01*
X116038145Y-82774703D01*
X116214369Y-82951235D01*
X116444735Y-83046891D01*
X116694171Y-83047109D01*
X116924703Y-82951855D01*
X117101235Y-82775631D01*
X117196891Y-82545265D01*
X117197109Y-82295829D01*
X117143394Y-82165830D01*
X129998000Y-69311224D01*
X129998000Y-74135272D01*
X129918765Y-74214369D01*
X129823109Y-74444735D01*
X129822891Y-74694171D01*
X129918145Y-74924703D01*
X130094369Y-75101235D01*
X130324735Y-75196891D01*
X130574171Y-75197109D01*
X130804703Y-75101855D01*
X130981235Y-74925631D01*
X131076891Y-74695265D01*
X131077109Y-74445829D01*
X130981855Y-74215297D01*
X130902000Y-74135302D01*
X130902000Y-69167224D01*
X132348000Y-67721224D01*
X132348000Y-74105272D01*
X132268765Y-74184369D01*
X132173109Y-74414735D01*
X132172891Y-74664171D01*
X132268145Y-74894703D01*
X132444369Y-75071235D01*
X132674735Y-75166891D01*
X132924171Y-75167109D01*
X133154703Y-75071855D01*
X133331235Y-74895631D01*
X133426891Y-74665265D01*
X133427109Y-74415829D01*
X133331855Y-74185297D01*
X133252000Y-74105302D01*
X133252000Y-67487224D01*
X134442968Y-66296256D01*
X134442891Y-66384171D01*
X134538145Y-66614703D01*
X134714369Y-66791235D01*
X134944735Y-66886891D01*
X135057766Y-66886990D01*
X137008000Y-68837225D01*
X137008000Y-72341330D01*
X136895631Y-72228765D01*
X136665265Y-72133109D01*
X136552234Y-72133010D01*
X136162000Y-71742776D01*
X136162000Y-69604728D01*
X136241235Y-69525631D01*
X136336891Y-69295265D01*
X136337109Y-69045829D01*
X136241855Y-68815297D01*
X136065631Y-68638765D01*
X135835265Y-68543109D01*
X135585829Y-68542891D01*
X135355297Y-68638145D01*
X135178765Y-68814369D01*
X135083109Y-69044735D01*
X135082891Y-69294171D01*
X135178145Y-69524703D01*
X135258000Y-69604698D01*
X135258000Y-71930000D01*
X135292406Y-72102973D01*
X135390388Y-72249612D01*
X135912989Y-72772213D01*
X135912891Y-72884171D01*
X136008145Y-73114703D01*
X136184369Y-73291235D01*
X136414735Y-73386891D01*
X136664171Y-73387109D01*
X136894703Y-73291855D01*
X137008000Y-73178756D01*
X137008000Y-76720000D01*
X137042406Y-76892973D01*
X137140388Y-77039612D01*
X142190387Y-82089612D01*
X142337026Y-82187594D01*
X142365724Y-82193302D01*
X142510000Y-82222000D01*
X157170000Y-82222000D01*
X157342973Y-82187594D01*
X157489612Y-82089612D01*
X158759612Y-80819612D01*
X158857594Y-80672973D01*
X158892000Y-80500000D01*
X158892000Y-78371236D01*
X158914703Y-78361855D01*
X159091235Y-78185631D01*
X159186891Y-77955265D01*
X159187109Y-77705829D01*
X159091855Y-77475297D01*
X158915631Y-77298765D01*
X158685265Y-77203109D01*
X158435829Y-77202891D01*
X158205297Y-77298145D01*
X158028765Y-77474369D01*
X157933109Y-77704735D01*
X157932891Y-77954171D01*
X157988000Y-78087545D01*
X157988000Y-80312776D01*
X156982776Y-81318000D01*
X142697225Y-81318000D01*
X137912000Y-76532776D01*
X137912000Y-68650000D01*
X137877594Y-68477027D01*
X137779612Y-68330387D01*
X135697011Y-66247787D01*
X135697109Y-66135829D01*
X135601855Y-65905297D01*
X135425631Y-65728765D01*
X135195265Y-65633109D01*
X135106193Y-65633031D01*
X139707998Y-61031226D01*
X139707998Y-63337446D01*
X139585297Y-63388145D01*
X139408765Y-63564369D01*
X139313109Y-63794735D01*
X139312891Y-64044171D01*
X139408145Y-64274703D01*
X139584369Y-64451235D01*
X139814735Y-64546891D01*
X140064171Y-64547109D01*
X140158000Y-64508340D01*
X140158000Y-70390000D01*
X140192406Y-70562973D01*
X140290388Y-70709612D01*
X144310388Y-74729613D01*
X144426043Y-74806891D01*
X144457027Y-74827594D01*
X144630000Y-74862000D01*
X153390000Y-74862000D01*
X153562973Y-74827594D01*
X153593827Y-74806978D01*
X153744171Y-74807109D01*
X153974703Y-74711855D01*
X154151235Y-74535631D01*
X154246891Y-74305265D01*
X154247109Y-74055829D01*
X154151855Y-73825297D01*
X153975631Y-73648765D01*
X153745265Y-73553109D01*
X153495829Y-73552891D01*
X153265297Y-73648145D01*
X153088765Y-73824369D01*
X153033277Y-73958000D01*
X144817225Y-73958000D01*
X144173396Y-73314171D01*
X147852891Y-73314171D01*
X147948145Y-73544703D01*
X148124369Y-73721235D01*
X148354735Y-73816891D01*
X148604171Y-73817109D01*
X148834703Y-73721855D01*
X149011235Y-73545631D01*
X149106891Y-73315265D01*
X149107109Y-73065829D01*
X149011855Y-72835297D01*
X148932000Y-72755302D01*
X148932000Y-69907224D01*
X150512214Y-68327011D01*
X150624171Y-68327109D01*
X150854703Y-68231855D01*
X151031235Y-68055631D01*
X151126891Y-67825265D01*
X151127109Y-67575829D01*
X151031855Y-67345297D01*
X150855631Y-67168765D01*
X150625265Y-67073109D01*
X150375829Y-67072891D01*
X150145297Y-67168145D01*
X149968765Y-67344369D01*
X149873109Y-67574735D01*
X149873010Y-67687765D01*
X148160388Y-69400388D01*
X148062406Y-69547027D01*
X148028000Y-69720000D01*
X148028000Y-72755272D01*
X147948765Y-72834369D01*
X147853109Y-73064735D01*
X147852891Y-73314171D01*
X144173396Y-73314171D01*
X141062000Y-70202776D01*
X141062000Y-62170418D01*
X141138145Y-62354703D01*
X141314369Y-62531235D01*
X141544735Y-62626891D01*
X141794171Y-62627109D01*
X142024703Y-62531855D01*
X142104698Y-62452000D01*
X143154371Y-62452000D01*
X143115297Y-62468145D01*
X142938765Y-62644369D01*
X142843109Y-62874735D01*
X142842891Y-63124171D01*
X142938145Y-63354703D01*
X143114369Y-63531235D01*
X143344735Y-63626891D01*
X143594171Y-63627109D01*
X143824703Y-63531855D01*
X143904698Y-63452000D01*
X150632776Y-63452000D01*
X154688000Y-67507225D01*
X154688000Y-74412776D01*
X153567787Y-75532989D01*
X153455829Y-75532891D01*
X153225297Y-75628145D01*
X153048765Y-75804369D01*
X152953109Y-76034735D01*
X152952891Y-76284171D01*
X153048145Y-76514703D01*
X153224369Y-76691235D01*
X153454735Y-76786891D01*
X153704171Y-76787109D01*
X153934703Y-76691855D01*
X154111235Y-76515631D01*
X154206891Y-76285265D01*
X154206990Y-76172234D01*
X155459612Y-74919612D01*
X155557594Y-74772973D01*
X155592000Y-74600000D01*
X155592000Y-67320000D01*
X155557594Y-67147027D01*
X155544230Y-67127027D01*
X155459613Y-67000388D01*
X151139612Y-62680388D01*
X150992973Y-62582406D01*
X150820000Y-62548000D01*
X143904728Y-62548000D01*
X143825631Y-62468765D01*
X143785256Y-62452000D01*
X154312776Y-62452000D01*
X159043760Y-67182985D01*
X158935829Y-67182891D01*
X158705297Y-67278145D01*
X158528765Y-67454369D01*
X158433109Y-67684735D01*
X158432891Y-67934171D01*
X158528145Y-68164703D01*
X158608000Y-68244698D01*
X158608000Y-72162775D01*
X153487787Y-77282989D01*
X153375829Y-77282891D01*
X153145297Y-77378145D01*
X152968765Y-77554369D01*
X152873109Y-77784735D01*
X152872891Y-78034171D01*
X152968145Y-78264703D01*
X153144369Y-78441235D01*
X153374735Y-78536891D01*
X153624171Y-78537109D01*
X153854703Y-78441855D01*
X154031235Y-78265631D01*
X154126891Y-78035265D01*
X154126990Y-77922234D01*
X159379612Y-72669613D01*
X159477594Y-72522973D01*
X159492186Y-72449612D01*
X159512000Y-72350000D01*
X159512000Y-68244728D01*
X159553000Y-68203799D01*
X159553000Y-77905000D01*
X159587406Y-78077973D01*
X159685388Y-78224612D01*
X183949000Y-102488224D01*
X183949000Y-131870646D01*
X183565440Y-132029130D01*
X183149591Y-132444254D01*
X182924257Y-132986918D01*
X182923744Y-133574505D01*
X183148130Y-134117560D01*
X183563254Y-134533409D01*
X184105918Y-134758743D01*
X184693505Y-134759256D01*
X185236560Y-134534870D01*
X185652409Y-134119746D01*
X185708000Y-133985868D01*
X185708000Y-137685775D01*
X185079365Y-138314410D01*
X184696082Y-138155257D01*
X184108495Y-138154744D01*
X183565440Y-138379130D01*
X183149591Y-138794254D01*
X182924257Y-139336918D01*
X182923744Y-139924505D01*
X183148130Y-140467560D01*
X183487976Y-140808000D01*
X182026224Y-140808000D01*
X181528590Y-140310366D01*
X181687743Y-139927082D01*
X181688256Y-139339495D01*
X181463870Y-138796440D01*
X181048746Y-138380591D01*
X180506082Y-138155257D01*
X179918495Y-138154744D01*
X179375440Y-138379130D01*
X178959591Y-138794254D01*
X178734257Y-139336918D01*
X178733744Y-139924505D01*
X178958130Y-140467560D01*
X179373254Y-140883409D01*
X179915918Y-141108743D01*
X180503505Y-141109256D01*
X180889530Y-140949754D01*
X181519388Y-141579612D01*
X181666027Y-141677594D01*
X181678123Y-141680000D01*
X105558000Y-141680000D01*
X105558000Y-139924505D01*
X106973744Y-139924505D01*
X107198130Y-140467560D01*
X107613254Y-140883409D01*
X108155918Y-141108743D01*
X108743505Y-141109256D01*
X109286560Y-140884870D01*
X109702409Y-140469746D01*
X109927743Y-139927082D01*
X109927745Y-139924505D01*
X111163744Y-139924505D01*
X111388130Y-140467560D01*
X111803254Y-140883409D01*
X112345918Y-141108743D01*
X112933505Y-141109256D01*
X113476560Y-140884870D01*
X113892409Y-140469746D01*
X114117743Y-139927082D01*
X114117745Y-139924505D01*
X115353744Y-139924505D01*
X115578130Y-140467560D01*
X115993254Y-140883409D01*
X116535918Y-141108743D01*
X117123505Y-141109256D01*
X117666560Y-140884870D01*
X118082409Y-140469746D01*
X118307743Y-139927082D01*
X118307745Y-139924505D01*
X119543744Y-139924505D01*
X119768130Y-140467560D01*
X120183254Y-140883409D01*
X120725918Y-141108743D01*
X121313505Y-141109256D01*
X121856560Y-140884870D01*
X122272409Y-140469746D01*
X122497743Y-139927082D01*
X122497745Y-139924505D01*
X123733744Y-139924505D01*
X123958130Y-140467560D01*
X124373254Y-140883409D01*
X124915918Y-141108743D01*
X125503505Y-141109256D01*
X126046560Y-140884870D01*
X126462409Y-140469746D01*
X126687743Y-139927082D01*
X126687745Y-139924505D01*
X127923744Y-139924505D01*
X128148130Y-140467560D01*
X128563254Y-140883409D01*
X129105918Y-141108743D01*
X129693505Y-141109256D01*
X130142025Y-140923931D01*
X162686571Y-140923931D01*
X162833448Y-141116572D01*
X163448577Y-141239893D01*
X164064076Y-141118426D01*
X164068552Y-141116572D01*
X164215429Y-140923931D01*
X166876571Y-140923931D01*
X167023448Y-141116572D01*
X167638577Y-141239893D01*
X168254076Y-141118426D01*
X168258552Y-141116572D01*
X168405429Y-140923931D01*
X171066571Y-140923931D01*
X171213448Y-141116572D01*
X171828577Y-141239893D01*
X172444076Y-141118426D01*
X172448552Y-141116572D01*
X172595429Y-140923931D01*
X175256571Y-140923931D01*
X175403448Y-141116572D01*
X176018577Y-141239893D01*
X176634076Y-141118426D01*
X176638552Y-141116572D01*
X176785429Y-140923931D01*
X176021000Y-140159502D01*
X175256571Y-140923931D01*
X172595429Y-140923931D01*
X171831000Y-140159502D01*
X171066571Y-140923931D01*
X168405429Y-140923931D01*
X167641000Y-140159502D01*
X166876571Y-140923931D01*
X164215429Y-140923931D01*
X163451000Y-140159502D01*
X162686571Y-140923931D01*
X130142025Y-140923931D01*
X130236560Y-140884870D01*
X130652409Y-140469746D01*
X130877743Y-139927082D01*
X130878002Y-139629577D01*
X161843107Y-139629577D01*
X161964574Y-140245076D01*
X161966428Y-140249552D01*
X162159069Y-140396429D01*
X162923498Y-139632000D01*
X163978502Y-139632000D01*
X164742931Y-140396429D01*
X164935572Y-140249552D01*
X165058893Y-139634423D01*
X165057937Y-139629577D01*
X166033107Y-139629577D01*
X166154574Y-140245076D01*
X166156428Y-140249552D01*
X166349069Y-140396429D01*
X167113498Y-139632000D01*
X168168502Y-139632000D01*
X168932931Y-140396429D01*
X169125572Y-140249552D01*
X169248893Y-139634423D01*
X169247937Y-139629577D01*
X170223107Y-139629577D01*
X170344574Y-140245076D01*
X170346428Y-140249552D01*
X170539069Y-140396429D01*
X171303498Y-139632000D01*
X172358502Y-139632000D01*
X173122931Y-140396429D01*
X173315572Y-140249552D01*
X173438893Y-139634423D01*
X173437937Y-139629577D01*
X174413107Y-139629577D01*
X174534574Y-140245076D01*
X174536428Y-140249552D01*
X174729069Y-140396429D01*
X175493498Y-139632000D01*
X176548502Y-139632000D01*
X177312931Y-140396429D01*
X177505572Y-140249552D01*
X177628893Y-139634423D01*
X177507426Y-139018924D01*
X177505572Y-139014448D01*
X177312931Y-138867571D01*
X176548502Y-139632000D01*
X175493498Y-139632000D01*
X174729069Y-138867571D01*
X174536428Y-139014448D01*
X174413107Y-139629577D01*
X173437937Y-139629577D01*
X173317426Y-139018924D01*
X173315572Y-139014448D01*
X173122931Y-138867571D01*
X172358502Y-139632000D01*
X171303498Y-139632000D01*
X170539069Y-138867571D01*
X170346428Y-139014448D01*
X170223107Y-139629577D01*
X169247937Y-139629577D01*
X169127426Y-139018924D01*
X169125572Y-139014448D01*
X168932931Y-138867571D01*
X168168502Y-139632000D01*
X167113498Y-139632000D01*
X166349069Y-138867571D01*
X166156428Y-139014448D01*
X166033107Y-139629577D01*
X165057937Y-139629577D01*
X164937426Y-139018924D01*
X164935572Y-139014448D01*
X164742931Y-138867571D01*
X163978502Y-139632000D01*
X162923498Y-139632000D01*
X162159069Y-138867571D01*
X161966428Y-139014448D01*
X161843107Y-139629577D01*
X130878002Y-139629577D01*
X130878256Y-139339495D01*
X130653870Y-138796440D01*
X130238746Y-138380591D01*
X129696082Y-138155257D01*
X129108495Y-138154744D01*
X128565440Y-138379130D01*
X128149591Y-138794254D01*
X127924257Y-139336918D01*
X127923744Y-139924505D01*
X126687745Y-139924505D01*
X126688256Y-139339495D01*
X126463870Y-138796440D01*
X126048746Y-138380591D01*
X125506082Y-138155257D01*
X124918495Y-138154744D01*
X124375440Y-138379130D01*
X123959591Y-138794254D01*
X123734257Y-139336918D01*
X123733744Y-139924505D01*
X122497745Y-139924505D01*
X122498256Y-139339495D01*
X122273870Y-138796440D01*
X121858746Y-138380591D01*
X121316082Y-138155257D01*
X120728495Y-138154744D01*
X120185440Y-138379130D01*
X119769591Y-138794254D01*
X119544257Y-139336918D01*
X119543744Y-139924505D01*
X118307745Y-139924505D01*
X118308256Y-139339495D01*
X118083870Y-138796440D01*
X117668746Y-138380591D01*
X117126082Y-138155257D01*
X116538495Y-138154744D01*
X115995440Y-138379130D01*
X115579591Y-138794254D01*
X115354257Y-139336918D01*
X115353744Y-139924505D01*
X114117745Y-139924505D01*
X114118256Y-139339495D01*
X113893870Y-138796440D01*
X113478746Y-138380591D01*
X112936082Y-138155257D01*
X112348495Y-138154744D01*
X111805440Y-138379130D01*
X111389591Y-138794254D01*
X111164257Y-139336918D01*
X111163744Y-139924505D01*
X109927745Y-139924505D01*
X109928256Y-139339495D01*
X109703870Y-138796440D01*
X109288746Y-138380591D01*
X108746082Y-138155257D01*
X108158495Y-138154744D01*
X107615440Y-138379130D01*
X107199591Y-138794254D01*
X106974257Y-139336918D01*
X106973744Y-139924505D01*
X105558000Y-139924505D01*
X105558000Y-138053622D01*
X144503666Y-138053622D01*
X144796416Y-138762132D01*
X145338017Y-139304678D01*
X146046014Y-139598665D01*
X146812622Y-139599334D01*
X147521132Y-139306584D01*
X148063678Y-138764983D01*
X148240118Y-138340069D01*
X162686571Y-138340069D01*
X163451000Y-139104498D01*
X164215429Y-138340069D01*
X166876571Y-138340069D01*
X167641000Y-139104498D01*
X168405429Y-138340069D01*
X171066571Y-138340069D01*
X171831000Y-139104498D01*
X172595429Y-138340069D01*
X175256571Y-138340069D01*
X176021000Y-139104498D01*
X176785429Y-138340069D01*
X176638552Y-138147428D01*
X176023423Y-138024107D01*
X175407924Y-138145574D01*
X175403448Y-138147428D01*
X175256571Y-138340069D01*
X172595429Y-138340069D01*
X172448552Y-138147428D01*
X171833423Y-138024107D01*
X171217924Y-138145574D01*
X171213448Y-138147428D01*
X171066571Y-138340069D01*
X168405429Y-138340069D01*
X168258552Y-138147428D01*
X167643423Y-138024107D01*
X167027924Y-138145574D01*
X167023448Y-138147428D01*
X166876571Y-138340069D01*
X164215429Y-138340069D01*
X164068552Y-138147428D01*
X163453423Y-138024107D01*
X162837924Y-138145574D01*
X162833448Y-138147428D01*
X162686571Y-138340069D01*
X148240118Y-138340069D01*
X148357665Y-138056986D01*
X148358334Y-137290378D01*
X148065584Y-136581868D01*
X147523983Y-136039322D01*
X146815986Y-135745335D01*
X146049378Y-135744666D01*
X145340868Y-136037416D01*
X144798322Y-136579017D01*
X144504335Y-137287014D01*
X144503666Y-138053622D01*
X105558000Y-138053622D01*
X105558000Y-133574505D01*
X106973744Y-133574505D01*
X107198130Y-134117560D01*
X107613254Y-134533409D01*
X108155918Y-134758743D01*
X108743505Y-134759256D01*
X109286560Y-134534870D01*
X109702409Y-134119746D01*
X109927743Y-133577082D01*
X109927745Y-133574505D01*
X111163744Y-133574505D01*
X111388130Y-134117560D01*
X111803254Y-134533409D01*
X112345918Y-134758743D01*
X112933505Y-134759256D01*
X113476560Y-134534870D01*
X113892409Y-134119746D01*
X114117743Y-133577082D01*
X114117745Y-133574505D01*
X115353744Y-133574505D01*
X115578130Y-134117560D01*
X115993254Y-134533409D01*
X116535918Y-134758743D01*
X117123505Y-134759256D01*
X117666560Y-134534870D01*
X118082409Y-134119746D01*
X118307743Y-133577082D01*
X118307745Y-133574505D01*
X119543744Y-133574505D01*
X119768130Y-134117560D01*
X120183254Y-134533409D01*
X120725918Y-134758743D01*
X121313505Y-134759256D01*
X121856560Y-134534870D01*
X122272409Y-134119746D01*
X122497743Y-133577082D01*
X122497745Y-133574505D01*
X123733744Y-133574505D01*
X123958130Y-134117560D01*
X124373254Y-134533409D01*
X124915918Y-134758743D01*
X125503505Y-134759256D01*
X126046560Y-134534870D01*
X126462409Y-134119746D01*
X126613299Y-133756363D01*
X126795157Y-133574505D01*
X127923744Y-133574505D01*
X128148130Y-134117560D01*
X128563254Y-134533409D01*
X129105918Y-134758743D01*
X129693505Y-134759256D01*
X130236560Y-134534870D01*
X130652409Y-134119746D01*
X130803299Y-133756363D01*
X135912662Y-128647000D01*
X153165400Y-128647000D01*
X153673221Y-128545988D01*
X154103731Y-128258331D01*
X157007279Y-125354783D01*
X157368160Y-125205670D01*
X157784009Y-124790546D01*
X158009343Y-124247882D01*
X158009856Y-123660295D01*
X157785470Y-123117240D01*
X157370346Y-122701391D01*
X156827682Y-122476057D01*
X156240095Y-122475544D01*
X155697040Y-122699930D01*
X155281191Y-123115054D01*
X155130301Y-123478437D01*
X152615738Y-125993000D01*
X135363000Y-125993000D01*
X134855179Y-126094012D01*
X134424669Y-126381669D01*
X128926321Y-131880017D01*
X128565440Y-132029130D01*
X128149591Y-132444254D01*
X127924257Y-132986918D01*
X127923744Y-133574505D01*
X126795157Y-133574505D01*
X135089862Y-125279800D01*
X139876897Y-125279800D01*
X140237518Y-125429543D01*
X140825105Y-125430056D01*
X141368160Y-125205670D01*
X141784009Y-124790546D01*
X142009343Y-124247882D01*
X142009856Y-123660295D01*
X141785470Y-123117240D01*
X141370346Y-122701391D01*
X140827682Y-122476057D01*
X140240095Y-122475544D01*
X139876448Y-122625800D01*
X134540200Y-122625800D01*
X134032379Y-122726812D01*
X133601869Y-123014469D01*
X124736321Y-131880017D01*
X124375440Y-132029130D01*
X123959591Y-132444254D01*
X123734257Y-132986918D01*
X123733744Y-133574505D01*
X122497745Y-133574505D01*
X122498256Y-132989495D01*
X122348000Y-132625848D01*
X122348000Y-128014062D01*
X125007277Y-125354784D01*
X125368160Y-125205670D01*
X125784009Y-124790546D01*
X126009343Y-124247882D01*
X126009856Y-123660295D01*
X125785470Y-123117240D01*
X125370346Y-122701391D01*
X124827682Y-122476057D01*
X124240095Y-122475544D01*
X123697040Y-122699930D01*
X123281191Y-123115054D01*
X123130300Y-123478438D01*
X120082669Y-126526069D01*
X119795012Y-126956579D01*
X119694000Y-127464400D01*
X119694000Y-132626297D01*
X119544257Y-132986918D01*
X119543744Y-133574505D01*
X118307745Y-133574505D01*
X118308256Y-132989495D01*
X118158000Y-132625848D01*
X118158000Y-112045305D01*
X123055344Y-112045305D01*
X123279730Y-112588360D01*
X123694854Y-113004209D01*
X124237518Y-113229543D01*
X124825105Y-113230056D01*
X125368160Y-113005670D01*
X125784009Y-112590546D01*
X126009343Y-112047882D01*
X126009856Y-111460295D01*
X125785470Y-110917240D01*
X125370346Y-110501391D01*
X124827682Y-110276057D01*
X124240095Y-110275544D01*
X123697040Y-110499930D01*
X123281191Y-110915054D01*
X123055857Y-111457718D01*
X123055344Y-112045305D01*
X118158000Y-112045305D01*
X118158000Y-104652800D01*
X127955600Y-104652800D01*
X128151762Y-105638976D01*
X128710386Y-106475014D01*
X129485372Y-107250000D01*
X128994877Y-107740495D01*
X128710386Y-107930586D01*
X128151762Y-108766625D01*
X127955600Y-109752800D01*
X128151762Y-110738975D01*
X128710386Y-111575014D01*
X129546425Y-112133638D01*
X130532600Y-112329800D01*
X130627000Y-112329800D01*
X131613176Y-112133638D01*
X131745375Y-112045305D01*
X135055344Y-112045305D01*
X135279730Y-112588360D01*
X135694854Y-113004209D01*
X136237518Y-113229543D01*
X136825105Y-113230056D01*
X137368160Y-113005670D01*
X137784009Y-112590546D01*
X138009343Y-112047882D01*
X138009345Y-112045305D01*
X139055344Y-112045305D01*
X139279730Y-112588360D01*
X139694854Y-113004209D01*
X140237518Y-113229543D01*
X140825105Y-113230056D01*
X141368160Y-113005670D01*
X141784009Y-112590546D01*
X142009343Y-112047882D01*
X142009856Y-111460295D01*
X141785470Y-110917240D01*
X141370346Y-110501391D01*
X140827682Y-110276057D01*
X140240095Y-110275544D01*
X139697040Y-110499930D01*
X139281191Y-110915054D01*
X139055857Y-111457718D01*
X139055344Y-112045305D01*
X138009345Y-112045305D01*
X138009856Y-111460295D01*
X137785470Y-110917240D01*
X137370346Y-110501391D01*
X136827682Y-110276057D01*
X136240095Y-110275544D01*
X135697040Y-110499930D01*
X135281191Y-110915054D01*
X135055857Y-111457718D01*
X135055344Y-112045305D01*
X131745375Y-112045305D01*
X132449214Y-111575014D01*
X134197228Y-109827000D01*
X143970359Y-109827000D01*
X144151762Y-110738975D01*
X144710386Y-111575014D01*
X145546425Y-112133638D01*
X146532600Y-112329800D01*
X147518775Y-112133638D01*
X147650974Y-112045305D01*
X151055344Y-112045305D01*
X151279730Y-112588360D01*
X151694854Y-113004209D01*
X152237518Y-113229543D01*
X152825105Y-113230056D01*
X153368160Y-113005670D01*
X153784009Y-112590546D01*
X154009343Y-112047882D01*
X154009345Y-112045305D01*
X155055344Y-112045305D01*
X155279730Y-112588360D01*
X155694854Y-113004209D01*
X156237518Y-113229543D01*
X156825105Y-113230056D01*
X157368160Y-113005670D01*
X157784009Y-112590546D01*
X158009343Y-112047882D01*
X158009856Y-111460295D01*
X157785470Y-110917240D01*
X157370346Y-110501391D01*
X156827682Y-110276057D01*
X156240095Y-110275544D01*
X155697040Y-110499930D01*
X155281191Y-110915054D01*
X155055857Y-111457718D01*
X155055344Y-112045305D01*
X154009345Y-112045305D01*
X154009856Y-111460295D01*
X153785470Y-110917240D01*
X153370346Y-110501391D01*
X152827682Y-110276057D01*
X152240095Y-110275544D01*
X151697040Y-110499930D01*
X151281191Y-110915054D01*
X151055857Y-111457718D01*
X151055344Y-112045305D01*
X147650974Y-112045305D01*
X148354814Y-111575014D01*
X148913438Y-110738975D01*
X149094841Y-109827000D01*
X159970359Y-109827000D01*
X160151762Y-110738975D01*
X160710386Y-111575014D01*
X161546425Y-112133638D01*
X162532600Y-112329800D01*
X163518775Y-112133638D01*
X163650974Y-112045305D01*
X167055344Y-112045305D01*
X167279730Y-112588360D01*
X167694854Y-113004209D01*
X168237518Y-113229543D01*
X168825105Y-113230056D01*
X169368160Y-113005670D01*
X169784009Y-112590546D01*
X170009343Y-112047882D01*
X170009856Y-111460295D01*
X169785470Y-110917240D01*
X169370346Y-110501391D01*
X168827682Y-110276057D01*
X168240095Y-110275544D01*
X167697040Y-110499930D01*
X167281191Y-110915054D01*
X167055857Y-111457718D01*
X167055344Y-112045305D01*
X163650974Y-112045305D01*
X164354814Y-111575014D01*
X164913438Y-110738975D01*
X165094841Y-109827000D01*
X171932572Y-109827000D01*
X173444000Y-111338428D01*
X173444000Y-130705000D01*
X163451000Y-130705000D01*
X162464825Y-130901162D01*
X161628786Y-131459786D01*
X161070162Y-132295825D01*
X160874000Y-133282000D01*
X161070162Y-134268175D01*
X161628786Y-135104214D01*
X162464825Y-135662838D01*
X163451000Y-135859000D01*
X180211000Y-135859000D01*
X181197175Y-135662838D01*
X182033214Y-135104214D01*
X182591838Y-134268175D01*
X182788000Y-133282000D01*
X182591838Y-132295825D01*
X182033214Y-131459786D01*
X181197175Y-130901162D01*
X180211000Y-130705000D01*
X178598000Y-130705000D01*
X178598000Y-110271000D01*
X178436741Y-109460295D01*
X178401838Y-109284824D01*
X177843214Y-108448786D01*
X174822214Y-105427786D01*
X173986176Y-104869162D01*
X173000000Y-104673000D01*
X165109600Y-104673000D01*
X165109600Y-104652800D01*
X164913438Y-103666625D01*
X164431467Y-102945305D01*
X167055344Y-102945305D01*
X167279730Y-103488360D01*
X167694854Y-103904209D01*
X168237518Y-104129543D01*
X168825105Y-104130056D01*
X169368160Y-103905670D01*
X169784009Y-103490546D01*
X170009343Y-102947882D01*
X170009856Y-102360295D01*
X169785470Y-101817240D01*
X169370346Y-101401391D01*
X168827682Y-101176057D01*
X168240095Y-101175544D01*
X167697040Y-101399930D01*
X167281191Y-101815054D01*
X167055857Y-102357718D01*
X167055344Y-102945305D01*
X164431467Y-102945305D01*
X164354814Y-102830586D01*
X163518775Y-102271962D01*
X162532600Y-102075800D01*
X161546425Y-102271962D01*
X160710386Y-102830586D01*
X160151762Y-103666625D01*
X159955600Y-104652800D01*
X159955600Y-104673000D01*
X149109600Y-104673000D01*
X149109600Y-104652800D01*
X148913438Y-103666625D01*
X148431467Y-102945305D01*
X151055344Y-102945305D01*
X151279730Y-103488360D01*
X151694854Y-103904209D01*
X152237518Y-104129543D01*
X152825105Y-104130056D01*
X153368160Y-103905670D01*
X153784009Y-103490546D01*
X154009343Y-102947882D01*
X154009345Y-102945305D01*
X155055344Y-102945305D01*
X155279730Y-103488360D01*
X155694854Y-103904209D01*
X156237518Y-104129543D01*
X156825105Y-104130056D01*
X157368160Y-103905670D01*
X157784009Y-103490546D01*
X158009343Y-102947882D01*
X158009856Y-102360295D01*
X157785470Y-101817240D01*
X157370346Y-101401391D01*
X156827682Y-101176057D01*
X156240095Y-101175544D01*
X155697040Y-101399930D01*
X155281191Y-101815054D01*
X155055857Y-102357718D01*
X155055344Y-102945305D01*
X154009345Y-102945305D01*
X154009856Y-102360295D01*
X153785470Y-101817240D01*
X153370346Y-101401391D01*
X152827682Y-101176057D01*
X152240095Y-101175544D01*
X151697040Y-101399930D01*
X151281191Y-101815054D01*
X151055857Y-102357718D01*
X151055344Y-102945305D01*
X148431467Y-102945305D01*
X148354814Y-102830586D01*
X147518775Y-102271962D01*
X146532600Y-102075800D01*
X145546425Y-102271962D01*
X144710386Y-102830586D01*
X144151762Y-103666625D01*
X143955600Y-104652800D01*
X143955600Y-104673000D01*
X134197229Y-104673000D01*
X132469534Y-102945305D01*
X135055344Y-102945305D01*
X135279730Y-103488360D01*
X135694854Y-103904209D01*
X136237518Y-104129543D01*
X136825105Y-104130056D01*
X137368160Y-103905670D01*
X137784009Y-103490546D01*
X138009343Y-102947882D01*
X138009345Y-102945305D01*
X139055344Y-102945305D01*
X139279730Y-103488360D01*
X139694854Y-103904209D01*
X140237518Y-104129543D01*
X140825105Y-104130056D01*
X141368160Y-103905670D01*
X141784009Y-103490546D01*
X142009343Y-102947882D01*
X142009856Y-102360295D01*
X141785470Y-101817240D01*
X141370346Y-101401391D01*
X140827682Y-101176057D01*
X140240095Y-101175544D01*
X139697040Y-101399930D01*
X139281191Y-101815054D01*
X139055857Y-102357718D01*
X139055344Y-102945305D01*
X138009345Y-102945305D01*
X138009856Y-102360295D01*
X137785470Y-101817240D01*
X137370346Y-101401391D01*
X136827682Y-101176057D01*
X136240095Y-101175544D01*
X135697040Y-101399930D01*
X135281191Y-101815054D01*
X135055857Y-102357718D01*
X135055344Y-102945305D01*
X132469534Y-102945305D01*
X132354814Y-102830586D01*
X131518776Y-102271962D01*
X130532600Y-102075800D01*
X129546424Y-102271962D01*
X128710386Y-102830586D01*
X128151762Y-103666624D01*
X127955600Y-104652800D01*
X118158000Y-104652800D01*
X118158000Y-102945305D01*
X123055344Y-102945305D01*
X123279730Y-103488360D01*
X123694854Y-103904209D01*
X124237518Y-104129543D01*
X124825105Y-104130056D01*
X125368160Y-103905670D01*
X125784009Y-103490546D01*
X126009343Y-102947882D01*
X126009856Y-102360295D01*
X125785470Y-101817240D01*
X125370346Y-101401391D01*
X124827682Y-101176057D01*
X124240095Y-101175544D01*
X123697040Y-101399930D01*
X123281191Y-101815054D01*
X123055857Y-102357718D01*
X123055344Y-102945305D01*
X118158000Y-102945305D01*
X118158000Y-93158662D01*
X119536861Y-91779800D01*
X135876897Y-91779800D01*
X136237518Y-91929543D01*
X136825105Y-91930056D01*
X137368160Y-91705670D01*
X137784009Y-91290546D01*
X138009343Y-90747882D01*
X138009856Y-90160295D01*
X137785470Y-89617240D01*
X137370346Y-89201391D01*
X136827682Y-88976057D01*
X136240095Y-88975544D01*
X135876448Y-89125800D01*
X118987200Y-89125800D01*
X118479379Y-89226812D01*
X118048869Y-89514469D01*
X118048867Y-89514472D01*
X115892669Y-91670669D01*
X115605012Y-92101179D01*
X115504000Y-92609000D01*
X115504000Y-132626297D01*
X115354257Y-132986918D01*
X115353744Y-133574505D01*
X114117745Y-133574505D01*
X114118256Y-132989495D01*
X113968000Y-132625848D01*
X113968000Y-93338662D01*
X118389661Y-88917000D01*
X149120138Y-88917000D01*
X151130616Y-90927477D01*
X151279730Y-91288360D01*
X151694854Y-91704209D01*
X152237518Y-91929543D01*
X152825105Y-91930056D01*
X153368160Y-91705670D01*
X153784009Y-91290546D01*
X154009343Y-90747882D01*
X154009856Y-90160295D01*
X153785470Y-89617240D01*
X153370346Y-89201391D01*
X153006962Y-89050500D01*
X150608131Y-86651669D01*
X150177621Y-86364012D01*
X149669800Y-86263000D01*
X117840000Y-86263000D01*
X117332179Y-86364012D01*
X116901669Y-86651669D01*
X116901667Y-86651672D01*
X111702669Y-91850669D01*
X111415012Y-92281179D01*
X111314000Y-92789000D01*
X111314000Y-132626297D01*
X111164257Y-132986918D01*
X111163744Y-133574505D01*
X109927745Y-133574505D01*
X109928256Y-132989495D01*
X109778000Y-132625848D01*
X109778000Y-93548662D01*
X117249661Y-86077000D01*
X162280138Y-86077000D01*
X167130617Y-90927479D01*
X167279730Y-91288360D01*
X167694854Y-91704209D01*
X168237518Y-91929543D01*
X168825105Y-91930056D01*
X169368160Y-91705670D01*
X169784009Y-91290546D01*
X170009343Y-90747882D01*
X170009856Y-90160295D01*
X169785470Y-89617240D01*
X169370346Y-89201391D01*
X169006963Y-89050501D01*
X163768131Y-83811669D01*
X163337621Y-83524012D01*
X162829800Y-83423000D01*
X116700005Y-83423000D01*
X116700000Y-83422999D01*
X116192179Y-83524012D01*
X115761669Y-83811669D01*
X115761667Y-83811672D01*
X107512669Y-92060669D01*
X107225012Y-92491179D01*
X107124000Y-92999000D01*
X107124000Y-132626297D01*
X106974257Y-132986918D01*
X106973744Y-133574505D01*
X105558000Y-133574505D01*
X105558000Y-46648514D01*
X106512343Y-45694171D01*
X119152891Y-45694171D01*
X119248145Y-45924703D01*
X119268000Y-45944593D01*
X119268000Y-46910000D01*
X119302406Y-47082973D01*
X119400388Y-47229612D01*
X119547027Y-47327594D01*
X119720000Y-47362000D01*
X119892973Y-47327594D01*
X120039612Y-47229612D01*
X120137594Y-47082973D01*
X120172000Y-46910000D01*
X120172000Y-46064623D01*
X120311235Y-45925631D01*
X120406891Y-45695265D01*
X120407109Y-45445829D01*
X120311855Y-45215297D01*
X120135631Y-45038765D01*
X119905265Y-44943109D01*
X119655829Y-44942891D01*
X119425297Y-45038145D01*
X119248765Y-45214369D01*
X119153109Y-45444735D01*
X119152891Y-45694171D01*
X106512343Y-45694171D01*
X111322514Y-40884000D01*
X181490462Y-40884000D01*
X187304000Y-46649492D01*
G36*
X133650388Y-46150388D02*
X133552406Y-46297027D01*
X133518000Y-46470000D01*
X133518000Y-52890000D01*
X133552406Y-53062973D01*
X133650388Y-53209612D01*
X134672989Y-54232213D01*
X134672891Y-54344171D01*
X134768145Y-54574703D01*
X134944369Y-54751235D01*
X135174735Y-54846891D01*
X135374598Y-54847066D01*
X135363109Y-54874735D01*
X135362891Y-55124171D01*
X135458145Y-55354703D01*
X135634369Y-55531235D01*
X135864735Y-55626891D01*
X136114171Y-55627109D01*
X136344703Y-55531855D01*
X136521235Y-55355631D01*
X136616891Y-55125265D01*
X136617109Y-54875829D01*
X136521855Y-54645297D01*
X136442000Y-54565302D01*
X136442000Y-53007224D01*
X137262924Y-52186300D01*
X137262891Y-52224171D01*
X137358145Y-52454703D01*
X137534369Y-52631235D01*
X137764735Y-52726891D01*
X137877766Y-52726990D01*
X139528000Y-54377225D01*
X139528000Y-57509921D01*
X139415265Y-57463109D01*
X139302235Y-57463010D01*
X138679612Y-56840388D01*
X138532973Y-56742406D01*
X138360000Y-56708000D01*
X134840000Y-56708000D01*
X134667027Y-56742406D01*
X134520388Y-56840387D01*
X133960388Y-57400388D01*
X133862406Y-57547027D01*
X133828000Y-57720000D01*
X133828000Y-62215272D01*
X133748765Y-62294369D01*
X133653109Y-62524735D01*
X133652891Y-62774171D01*
X133748145Y-63004703D01*
X133924369Y-63181235D01*
X134128416Y-63265962D01*
X116316378Y-81078000D01*
X115261224Y-81078000D01*
X130249613Y-66089612D01*
X130347594Y-65942973D01*
X130382000Y-65770000D01*
X130382000Y-51074728D01*
X130461235Y-50995631D01*
X130556891Y-50765265D01*
X130557109Y-50515829D01*
X130461855Y-50285297D01*
X130285631Y-50108765D01*
X130055265Y-50013109D01*
X129805829Y-50012891D01*
X129575297Y-50108145D01*
X129398765Y-50284369D01*
X129303109Y-50514735D01*
X129302979Y-50663081D01*
X129085829Y-50662891D01*
X128912000Y-50734716D01*
X128912000Y-46557224D01*
X130957223Y-44512002D01*
X135288774Y-44512002D01*
X133650388Y-46150388D01*
X133650388Y-46150388D01*
G37*
X133650388Y-46150388D02*
X133552406Y-46297027D01*
X133518000Y-46470000D01*
X133518000Y-52890000D01*
X133552406Y-53062973D01*
X133650388Y-53209612D01*
X134672989Y-54232213D01*
X134672891Y-54344171D01*
X134768145Y-54574703D01*
X134944369Y-54751235D01*
X135174735Y-54846891D01*
X135374598Y-54847066D01*
X135363109Y-54874735D01*
X135362891Y-55124171D01*
X135458145Y-55354703D01*
X135634369Y-55531235D01*
X135864735Y-55626891D01*
X136114171Y-55627109D01*
X136344703Y-55531855D01*
X136521235Y-55355631D01*
X136616891Y-55125265D01*
X136617109Y-54875829D01*
X136521855Y-54645297D01*
X136442000Y-54565302D01*
X136442000Y-53007224D01*
X137262924Y-52186300D01*
X137262891Y-52224171D01*
X137358145Y-52454703D01*
X137534369Y-52631235D01*
X137764735Y-52726891D01*
X137877766Y-52726990D01*
X139528000Y-54377225D01*
X139528000Y-57509921D01*
X139415265Y-57463109D01*
X139302235Y-57463010D01*
X138679612Y-56840388D01*
X138532973Y-56742406D01*
X138360000Y-56708000D01*
X134840000Y-56708000D01*
X134667027Y-56742406D01*
X134520388Y-56840387D01*
X133960388Y-57400388D01*
X133862406Y-57547027D01*
X133828000Y-57720000D01*
X133828000Y-62215272D01*
X133748765Y-62294369D01*
X133653109Y-62524735D01*
X133652891Y-62774171D01*
X133748145Y-63004703D01*
X133924369Y-63181235D01*
X134128416Y-63265962D01*
X116316378Y-81078000D01*
X115261224Y-81078000D01*
X130249613Y-66089612D01*
X130347594Y-65942973D01*
X130382000Y-65770000D01*
X130382000Y-51074728D01*
X130461235Y-50995631D01*
X130556891Y-50765265D01*
X130557109Y-50515829D01*
X130461855Y-50285297D01*
X130285631Y-50108765D01*
X130055265Y-50013109D01*
X129805829Y-50012891D01*
X129575297Y-50108145D01*
X129398765Y-50284369D01*
X129303109Y-50514735D01*
X129302979Y-50663081D01*
X129085829Y-50662891D01*
X128912000Y-50734716D01*
X128912000Y-46557224D01*
X130957223Y-44512002D01*
X135288774Y-44512002D01*
X133650388Y-46150388D01*
M02*
